<?xml version="1.0" encoding="utf-8"?>
<!-- Generator: Adobe Illustrator 14.0.0, SVG Export Plug-In . SVG Version: 6.00 Build 43363)  -->
<!DOCTYPE svg PUBLIC "-//W3C//DTD SVG 1.1//EN" "http://www.w3.org/Graphics/SVG/1.1/DTD/svg11.dtd">
<svg version="1.1" xmlns="http://www.w3.org/2000/svg" xmlns:xlink="http://www.w3.org/1999/xlink" x="0px" y="0px" width="417px"
	 height="365.242px" viewBox="-11.01 -33.758 417 365.242" enable-background="new -11.01 -33.758 417 365.242"
	 xml:space="preserve">
<g id="Layer_1">
	<g id="Layer_2" stroke-width="2">
		<path fill="none" stroke="#FFFFFF" d="M355.399,325.566c8.794-8.724-3.387-23.547-1.898-32.562
			c2.836,0.35,4.767,2.523,7.661,3.205c1.091-6.848-6.021-17.902-9.062-23.846c-5.657-11.057-12.824-21.383-18.854-32.297
			c-7.178-12.992-3.229-27.736-8.849-41.986c-1.675-4.248-7.646-14.121,1.976-10.582c1.111,0.41-3.331-12.139-3.98-13.229
			c-2.275-3.822-7.261-8.453-6.894-13.285c0.915,0.529,3.552,0.631,4.466,1.163c0.761-8.159-8.352-10.735-9.11-16.787
			c-0.459-3.654,3.68-4.392,2.37-9.326c-2.404-9.069-15.58-11.098-16.881-21.244c-1.823-14.229,19.754-27.714,25.302-39.668
			c6.157-13.275,6.977-30.129-0.999-43.274c-7.648-12.61-26.749-20.158-39.22-10.749c-9.267,6.993-10.729,20.987-18.955,28.878
			c-9.562,9.175-20.863-0.51-32.604-4.327c-12.159-3.954-22.587-5.713-35.469-3.774c-11.241,1.692-22.054,4.039-33,7.272
			c-11.214,3.313-22.958,11.427-34.086,2.68c-8.452-6.644-9.218-20.063-15.667-28.177c-9.853-12.386-28.431-8.034-37.021,3.493
			c-8.56,11.483-7.139,28.323-6.227,42.754c0.55,8.688,3.18,15.615,8.284,22.786c4.744,6.656,13.104,10.257,13.482,18.333
			c0.282,6.02-6.543,18.849-11.016,22.633c-5.152,4.36-22.516,15.986-2.86,13.399c-1.083,3.3-28.899,36.795-6.071,25.95
			c-1.888,8.652-6.401,17.516-4.486,26.473c1.384,0.057,2.716,0.422,3.782,1.225c-0.339,2.826,0.496,5.146,0.661,7.955
			c0.186,3.144,1.604,10.33,0.29,13.3c-8.311,18.78-27.036,28.646-35.733,47.614c-3.524,7.688-2,12,3.915,9.402
			c1.294,8.604-6.721,15.93-5.915,25.264"/>
		<path fill="none" stroke="#FFFFFF" d="M102.733,126.899c-5.066,3.21-7.396,7.634-10,12.667"/>
		<path fill="none" stroke="#FFFFFF" d="M94.066,176.898c-5.53,4.289-11.842,13.881-8.68,21.266c2.304-1.32,3.774-4.141,5.896-5.178
			c0.288,4.238-0.197,7.475,2.082,11.246c2.631,4.356,8.61,7.201,8.7-0.666"/>
		<path fill="none" stroke="#FFFFFF" d="M116.733,183.564c-1.812,3.697-2.415,7.93-2.667,12"/>
		<path fill="none" stroke="#FFFFFF" d="M120.066,189.564c-0.886,5.562-1.31,10.985-1.333,16.668"/>
		<path fill="none" stroke="#FFFFFF" d="M286.733,157.565c3.817,4.102,5.976,11.222,6.666,16.667"/>
		<path fill="none" stroke="#FFFFFF" d="M296.733,160.899c1.012,3.452,3.409,6.804,3.333,10.667"/>
		<path fill="none" stroke="#FFFFFF" d="M134.733,58.899c-5.334-0.155-10.317-1.52-15.898-1.232c-0.464,3.984,3.861,4.39,5.85,7.082
			c-3.33,0.481-5.621,2.383-7.064,5.385c1.107-0.173,2.739,0.741,3.115,0.765"/>
		<path fill="none" stroke="#FFFFFF" d="M259.399,61.565c0.812-0.114,5.527-0.783,7.896-0.563c-0.464,2.453-1.763,4.23-2.461,6.465
			c3.019-0.082,6.131,0.849,6.479,4c-1.398,0.234-1.654,0.924-2.516,1.286c4.599,4.812,8.324,13.912,5.933,9.479"/>
		<path fill="none" stroke="#FFFFFF" d="M101.399,22.232c10.367,10.623,10.667,20.667,10,36c-0.235,5.418-2.689,13.432-4,18.667
			c-2.194,8.77-2.65,11.835-3.333,20.667"/>
		<path fill="none" stroke="#FFFFFF" d="M302.066,21.565c-17.122-1.747-23.945,14.688-24.667,28.667
			c-0.42,8.148,1.156,14.9,3.481,22.487c1.504,4.907,5.186,21.513,5.186,26.846"/>
		<path fill="none" stroke="#FFFFFF" d="M232.733,71.565c3.927,2.993,8.264,6.327,11.333,10.667"/>
		<path fill="none" stroke="#FFFFFF" d="M229.399,69.565c5.123,1.742,9.627,6.779,13.334,10.667"/>
		<path fill="none" stroke="#FFFFFF" d="M243.399,69.565c4.685,2.753,9.072,6.339,10,12"/>
		<path fill="none" stroke="#FFFFFF" d="M243.399,70.899c4.288,1.852,7.937,6.913,9.334,11.333"/>
		<path fill="none" stroke="#FFFFFF" d="M151.893,208.251c-7.046-12.258-6.268-28.597-4.125-42.076
			c2.187-13.755,8.257-26.261,17.521-36.646c6.064-6.799,16.549-12.043,25.422-13.629c10.698-1.912,19.777,7.051,25.578,15.126
			c5.21,7.253,10.782,16.256,13.788,24.687c4.883,13.704,3.594,31.62,2.005,45.85c-2.773,24.845-39.652,38.345-60.178,26.201
			c-6.757-3.998-12.568-9.512-17.336-15.551C153.572,210.953,152.684,209.626,151.893,208.251z"/>
		<path fill="#FFFFFF" d="M137.9,127.718c4.273,9.462,7.801-4.787,6.07-9.417C139.826,107.207,135.338,122.045,137.9,127.718z"/>
		<path fill="#FFFFFF" d="M232.567,125.434c4.272,8.322,7.801-4.211,6.07-8.284C234.492,107.393,230.005,120.444,232.567,125.434z"
			/>
		<path fill="#FFFFFF" d="M194.859,168.348c1.458-1.791,2.744-4.439,4.41-6.261c2.113-2.311,1.948-2.472,5.464-3.889
			c3.618-1.458,11.447-1.26,7.833-7.798c-2.1-3.795-8.875-3.625-12.502-4.168c-4.229-0.632-41.04-5.696-29.678,8.393
			c2.542,3.152,6.655,1.395,9.676,3.108c3.62,2.053,3.731,5.34,6.161,8.484C190.445,171.682,192.82,170.854,194.859,168.348z"/>
		<path fill="none" stroke="#FFFFFF" d="M190.066,173.564c0,8.891,0,17.778,0,26.668"/>
		<path fill="none" stroke="#FFFFFF" d="M174.733,210.898c13.333-13.332,18.786-12.545,32,0.668"/>
		<path fill="none" stroke="#FFFFFF" d="M276.066,177.564c4.667,6,6.667,15.334,4.565,17.897c-2.681,0.681-1.784-2.479-3.232-4.563
			c-2,12.668,0.667,7.334-4.666,16"/>
	</g>
	<g id="Layer_3" display="none">
		<path display="inline" fill="none" stroke="#000000" stroke-width="2" stroke-linecap="round" stroke-linejoin="round" d="
			M115.413,256.27c-3.768,1.354-7.65-0.226-10.681-2.703"/>
		<path display="inline" fill="none" stroke="#000000" stroke-width="2" stroke-linecap="round" stroke-linejoin="round" d="
			M115.399,232.232c7.292,6.416,8.468,14.436,5.291,19.627"/>
		<path display="inline" fill="none" stroke="#000000" stroke-width="2" stroke-linecap="round" stroke-linejoin="round" d="
			M98.409,257.964c-2.823,0.453-5.972-0.504-9.011-3.731"/>
		<path display="inline" fill="none" stroke="#000000" stroke-width="2" stroke-linecap="round" stroke-linejoin="round" d="
			M96.066,233.232c8.214,2.498,13.143,16.524,8,21.666"/>
		<path display="inline" fill="none" stroke="#000000" stroke-width="2" stroke-linecap="round" stroke-linejoin="round" d="
			M82.431,257.953c-4.157,0.719-7.782-0.055-12.032-5.055"/>
		<path display="inline" fill="none" stroke="#000000" stroke-width="2" stroke-linecap="round" stroke-linejoin="round" d="
			M82.066,234.566c7.334,3.973,12.396,15.133,6.282,20.646"/>
		<path display="inline" fill="none" stroke="#000000" stroke-width="2" stroke-linecap="round" stroke-linejoin="round" d="
			M129.733,249.566c-1.333,0.666-4.58,1.752-7.667-1.334"/>
		<path display="inline" fill="none" stroke="#000000" stroke-width="2" stroke-linecap="round" stroke-linejoin="round" d="
			M63.733,257.566c-3.667,1.332-6.833,0.75-12.333-5c-5.486-5.736-9-13.668-20.5-16.168c9-14,21.31-16.916,31.167-20.314
			c11.54-3.979,21.804-5.205,34-3.852c11.032,1.227,21.507,3.688,30.517,10.854c6.502,5.168,12.995,17.131,8.195,22.951"/>
		<path display="inline" fill="none" stroke="#000000" stroke-width="2" stroke-linecap="round" stroke-linejoin="round" d="
			M67.399,236.566c3.937,3.783,6.667,12.666,1.667,17"/>
		<path display="inline" fill="none" stroke="#000000" stroke-width="2" stroke-linecap="round" stroke-linejoin="round" d="
			M128.808,246.583c0.153,0.862,3.93,8.181,4.591,8.981c3.758,4.562,1.672-8.496-1-11"/>
		<path display="inline" fill="none" stroke="#000000" stroke-width="2" stroke-linecap="round" stroke-linejoin="round" d="
			M306.171,253.468c-0.403-0.422-0.761-0.844-1.071-1.266c-5.285-7.164,2.359-14.334,6.301-17.306"/>
		<path display="inline" fill="none" stroke="#000000" stroke-width="2" stroke-linecap="round" stroke-linejoin="round" d="
			M324.905,254.468c-1.452-2.516-0.437-6.711-0.506-8.569c-1.333,5-4.667,10-12.333,9.668"/>
		<path display="inline" fill="none" stroke="#000000" stroke-width="2" stroke-linecap="round" stroke-linejoin="round" d="
			M342.399,254.566c-0.667-1-1.323-2.779,0-6.668c-2.214,5.987-8,8-12,8.5"/>
		<path display="inline" fill="none" stroke="#000000" stroke-width="2" stroke-linecap="round" stroke-linejoin="round" d="
			M325.399,215.566c10.992,0,33.842,7.586,36,19.832c1.331,7.553,0.191,10.852-5.333,17.168c-1.167,1.334-6.781,3.385-8.334,3.666"
			/>
		<path display="inline" fill="none" stroke="#000000" stroke-width="2" stroke-linecap="round" stroke-linejoin="round" d="
			M296.099,254.839c3.734-0.483,5.91-2.717,7.301-4.94"/>
		<path display="inline" fill="none" stroke="#000000" stroke-width="2" stroke-linecap="round" stroke-linejoin="round" d="
			M297.733,221.232c-8.771,6.151-16.277,16.971-11.918,28c1.319,3.34,2.917,4.666,3.917,5"/>
		<path display="inline" fill="none" stroke="#000000" stroke-width="2" stroke-linecap="round" stroke-linejoin="round" d="
			M278.732,256.898c3.098-0.646,5.173-2.398,6.334-6.666"/>
		<path display="inline" fill="none" stroke="#000000" stroke-width="2" stroke-linecap="round" stroke-linejoin="round" d="
			M324.733,215.566c-2.178-2.871-6.446-5.349-9.948-5.957c0.075,1.098,0.411,2.252,0.904,3.174c-0.749-1.398-5.878-3.25-7.423-3.682
			c-1.87-0.521-7.837,0.248-3.483,1.797c-1.79,1.26-4.808,0.545-7.05,0.668c-2.954,0.162-5.622,0.664-8.483,1.406
			c-8.258,2.146-17.698,7.414-21.107,15.668c-2.773,6.713-10.408,24.592,4.926,28.926"/>
		<path display="inline" fill="none" stroke="#000000" stroke-width="2" stroke-linecap="round" stroke-linejoin="round" d="
			M273.732,249.566c-3,1,0.113,13.408,5.58,14.77c2.087,0.23-0.295-7.512-1.413-10.438"/>
		<path display="inline" fill="none" stroke="#000000" stroke-width="2" stroke-linecap="round" stroke-linejoin="round" d="
			M295.399,250.898c-0.232-6.875-4.396-1.474-4.667,2.334c-0.333,4.666-0.666,10.666,2.151,11.774
			c2.516-0.44,1.928-9.603,2.516-13.608"/>
		<path display="inline" fill="none" stroke="#000000" stroke-width="2" stroke-linecap="round" stroke-linejoin="round" d="
			M309.899,247.398c-3.131,3.324-6.5,13.834-3.425,13.926c2.592,0.908,5.648-7.432,7.425-10.426"/>
		<path display="inline" fill="none" stroke="#000000" stroke-width="2" stroke-linecap="round" stroke-linejoin="round" d="
			M327.732,251.232c-0.786,1.449-5.666,10-4,11.666c2.351,2.352,10-11,7.167-12"/>
		<path display="inline" fill="none" stroke="#000000" stroke-width="2" stroke-linecap="round" stroke-linejoin="round" d="
			M345.399,251.398c-1.546,3.346-8,8.168-6.436,9.924c1.103,3.576,9.556-5.344,10.436-9.09"/>
		<path display="inline" fill="none" stroke="#000000" stroke-width="2" stroke-linecap="round" stroke-linejoin="round" d="
			M115.066,252.898c3.333,5.334,2,9.002,5.667,10.334c1.667-1.332,1.667-11.666-4-14.334"/>
		<path display="inline" fill="none" stroke="#000000" stroke-width="2" stroke-linecap="round" stroke-linejoin="round" d="
			M97.399,253.398c3,5.168,3,11.834,6,12.168c3-1.334,1.063-11.148-2-14.168"/>
		<path display="inline" fill="none" stroke="#000000" stroke-width="2" stroke-linecap="round" stroke-linejoin="round" d="
			M82.066,251.232c-1.333,4,5.576,15.397,6.667,12.666c1.909-0.603-1.333-9.666-4.333-13.5"/>
		<path display="inline" fill="none" stroke="#000000" stroke-width="2" stroke-linecap="round" stroke-linejoin="round" d="
			M60.733,252.898c4.333,4.668,8.667,13.668,11,11.668c2.667-2.334-3.635-12.414-7.667-14.668"/>
		<path display="inline" fill="none" stroke="#000000" stroke-width="2" stroke-linecap="round" stroke-linejoin="round" d="
			M333.899,227.398c-3.76-1.998-11.647-3.762-14.96-0.625c0.916,0.221,1.944,1.055,2.812,1.266
			c-2.388,1.047-4.958,0.768-6.852,2.859"/>
		<path display="inline" fill="none" stroke="#000000" stroke-width="2" stroke-linecap="round" stroke-linejoin="round" d="
			M332.899,234.398c-3.688,2.127-6.149,5.11-8,9"/>
		<path display="inline" fill="none" stroke="#000000" stroke-width="2" stroke-linecap="round" stroke-linejoin="round" d="
			M346.899,236.898c-1.658,1.735-2.834,4.11-3.5,6.5"/>
		<path display="inline" fill="none" stroke="#000000" stroke-width="2" stroke-linecap="round" stroke-linejoin="round" d="
			M89.399,218.898c4.659-0.42,9.247-0.844,13.943-0.551c-1.279,1.401-3.322,3.186-5.091,4.45c3.881-0.202,12.546-0.219,13.146,4.101
			"/>
	</g>
</g>
<g id="Layer_2_1_">
	<path fill="none" stroke="#FFFFFF" stroke-width="2" stroke-linecap="round" stroke-linejoin="round" d="M345.657,261.576
		c8.342-0.311,32.816,5.893,29.055-9.111c-1.442-5.75-6.002-8.756-6.722-15.223c-1.096-9.848,4.027-17.863,5.39-27.168
		c1.355-9.257,0.604-18.798,2.146-28.218c4.91-30.006,9.097-60.378,6.465-90.614c-0.951-10.938-2.052-19.235-4-30
		c-0.369-2.034-1.725-11.949-2-14c-1.492-11.124-1.928-17.091-2-28c-0.154-23.39,18.292-37.633-85.269-27.864
		c-22.824,2.154-49.726-3.244-72.731-2.136c-25.112,1.208-46.012-0.17-71,1c-22.332,1.045-49.203,7.225-72,4
		c-13.239-1.872-38.697-5.479-51,5c-10.333,8.802-1.246,27.23-2.094,38.911c-0.834,11.485-5.797,22.397-8.465,33.712
		c-3.104,13.168-2.419,26.511-2.419,40.026c0,22.249-2.062,45.323,3.297,67.162c4.13,16.836,15.821,35.215,13.752,52.963
		c-0.957,8.202-11.155,20.814-8.207,28.567c3.289,8.65,10.027,6.715,17.135,5.658"/>
	<path fill="none" stroke="#FFFFFF" stroke-width="2" stroke-linecap="round" stroke-linejoin="round" d="M42.99,50.242
		c7,0,19,4,25,9"/>
	<path fill="none" stroke="#FFFFFF" stroke-width="2" stroke-linecap="round" stroke-linejoin="round" d="M67.99,121.242
		c-10-7-32-10-27.278,4.146c11.036,3.966,19.278,5.854,38.278,8.854"/>
	<path fill="none" stroke="#FFFFFF" stroke-width="2" stroke-linecap="round" stroke-linejoin="round" d="M319.99,31.242
		c13-6,19-10,34-12"/>
	<path fill="none" stroke="#FFFFFF" stroke-width="2" stroke-linecap="round" stroke-linejoin="round" d="M321.99,191.242
		c22,4,30,17,35,25"/>
	<path fill="none" stroke="#FFFFFF" stroke-width="2" stroke-linecap="round" stroke-linejoin="round" d="M50.99,93.242
		c10.767,3.383,22.938,5.252,30,15"/>
	<path fill="none" stroke="#FFFFFF" stroke-width="2" stroke-linecap="round" stroke-linejoin="round" d="M43.99,202.242
		c8.351,0.192,15.932-1.128,22-7"/>
	<path fill="none" stroke="#FFFFFF" stroke-width="2" stroke-linecap="round" stroke-linejoin="round" d="M309.99,106.242
		c4.729-3.515,44.67-22.202,51.547-10.801c9.365,15.525-29.305,15.789-35.547,15.801"/>
	<path fill="none" stroke="#FFFFFF" stroke-width="2" stroke-linecap="round" stroke-linejoin="round" d="M312.99,134.242
		c9.577-1.836,24.512-4.573,33-1"/>
	<path fill="none" stroke="#FFFFFF" stroke-width="2" stroke-linecap="round" stroke-linejoin="round" d="M244.99,16.242
		c-5.2,8.954-10.444,16.04-10,27"/>
</g>
</svg>
