<?xml version="1.0" encoding="utf-8"?>
<!-- Generator: Adobe Illustrator 14.0.0, SVG Export Plug-In . SVG Version: 6.00 Build 43363)  -->
<!DOCTYPE svg PUBLIC "-//W3C//DTD SVG 1.1//EN" "http://www.w3.org/Graphics/SVG/1.1/DTD/svg11.dtd">
<svg version="1.1" id="Layer_1" xmlns="http://www.w3.org/2000/svg" xmlns:xlink="http://www.w3.org/1999/xlink" x="0px" y="0px"
	 width="65.667px" height="68.667px" viewBox="0 0 65.667 68.667" enable-background="new 0 0 65.667 68.667" xml:space="preserve">
<path fill="#FFFFFF" stroke="#000000" d="M44.667,25.5C54,26.833,61.5,34.824,61.5,43.75c0,9.655-8.264,19.25-25,19.25
	c-12.337,0-22.833-7.167-24.833-16.5"/>
<path fill="#FFFFFF" stroke="#000000" d="M11.333,42.667c1.167-8.167,6.016-13.655,14-15.833"/>
<path fill="none" stroke="#000000" stroke-linecap="round" d="M35.75,34.75C19.5,30.5,16.036,2.504,31.5,4.5
	c23.25,3,12.291,22.621,9,33"/>
<ellipse stroke="#FFFFFF" cx="54.978" cy="42.75" rx="1.618" ry="2.5"/>
<path d="M44.25,61.75C47.333,57,48.667,50.5,49,44.667c0.318-5.577-1.5-12.417-5-18.917L41.5,35c0.833,3,1.738,7.505,1.333,12.5
	c-0.5,6.167-2.5,12.833-5.167,15.333L44.25,61.75z"/>
<path d="M29.75,61.75C33,56,33.856,49.151,34,45.333c0.062-1.627,0.026-8.187-1.333-11.333c-2.5-2-4.966-3.747-7.333-7.167
	L24.25,27.5c3.75,5.5,4.25,13,4,17.25c-0.224,3.813-0.917,9.25-3.5,15.75L29.75,61.75z"/>
<path fill="none" stroke="#000000" d="M22.25,9c-5.75-2.5-9.779,1.997-9,7.5c0.679,4.789,5.25,9.25,8.25,11.75"/>
<path fill="none" stroke="#000000" stroke-linecap="round" stroke-linejoin="round" d="M16.625,44.5
	c-0.012,3.113-10.335,1.248-12.292,0.501C5.897,44.333,16.643,39.855,16.625,44.5z"/>
</svg>
