<?xml version="1.0" encoding="utf-8"?>
<!-- Generator: Adobe Illustrator 14.0.0, SVG Export Plug-In . SVG Version: 6.00 Build 43363)  -->
<!DOCTYPE svg PUBLIC "-//W3C//DTD SVG 1.1//EN" "http://www.w3.org/Graphics/SVG/1.1/DTD/svg11.dtd">
<svg version="1.1" id="Layer_1" xmlns="http://www.w3.org/2000/svg" xmlns:xlink="http://www.w3.org/1999/xlink" x="0px" y="0px"
	 width="790.46px" height="124px" viewBox="0 13.747 790.46 124" enable-background="new 0 13.747 790.46 124" xml:space="preserve"
	>
<g id="Layer_1_1_">
	<path fill="none" stroke="#FFFFFF" stroke-width="3" d="M-86.27,33.747c47.113-15.707,105.772-6.986,155.235-9.41
		c88.917-4.356,178.405-4.927,267.419-4.833c192.633,0.201,386.381-7.515,578.569,1.495"/>
	<path fill="none" stroke="#FFFFFF" stroke-width="3" d="M-19.501,131.993c-2.155-0.002-4.31,0-6.465,0
		c154.255,0.246,309.761,2.846,463.977-1.832c91.182-2.768,182.041-1.182,273.25-1.168c53.775,0.008,107.926-1.873,161.627,1.09
		c21.375,1.178,43.15,4.097,64.562,3.41"/>
	<path fill="none" stroke="#FFFFFF" d="M776.958,37.498c-8.229,0.244-19.498,3-46.496,4.5c-23.93,1.33-40.973,0.567-64.832,1.543
		c-24.973,1.021-104.658-6.042-107.658,4.457c0,6,71.996,9,95.994,12"/>
	<path fill="none" stroke="#FFFFFF" d="M118.492,77.997C221.961,68.44,326.53,59.606,430.441,67.085
		c128.447,9.246,256.662,16.878,385.516,16.912"/>
	<path fill="none" stroke="#FFFFFF" d="M242.986,97.495c27.052,0.705,54.892-2.6,81.985-3.363
		c55.296-1.555,110.245,2.143,165.503,1.863"/>
	<path fill="none" stroke="#FFFFFF" d="M119.994,41.998c18.001-1.5,51.088-4.444,76.496-4.5"/>
</g>
<g id="Layer_2" display="none">
	<path display="inline" fill="none" stroke="#FFFFFF" d="M758.962,172.493c-46.498,11.998-95.996,22.498-130.562,26.998
		c-38.008,4.946-81.908,5.443-117.369,20.963c-25.723,11.258-21.475,24.111,5.104,28.713c41.01,7.102,160.332-0.18,227.83,31.319"/>
	<path display="inline" fill="none" stroke="#FFFFFF" d="M71.994,235.488c26.181,24.318,84.152,25.152,116.663,30.367
		c105.322,16.896,210.334,20.821,316.891,20.666c35.449-0.054,71.336-1.747,106.693,1.356c16.02,1.408,35.531,2.506,52.223,6.107
		c20.654,4.457,43.498,8.999,56.998,13.5c0,0,58.535,15.852,56.996,16.498"/>
	<path display="inline" fill="none" stroke="#FFFFFF" d="M68.995,332.983c15.273,7.867,55.497,20.998,124.494,26.998
		c22.632,1.969,77.959-0.676,100.418,2.564c15.05,2.17,39.491,4.713,52.746,15.105c46.328,36.326-72.167,28.826-156.162,69.324"/>
	<path display="inline" fill="none" stroke="#FFFFFF" d="M593.97,443.977c-59.814-0.131-138.543-3.434-197.99,3
		c-137.315,14.859-215.946,43.486-311.984,67.498"/>
	<path display="inline" fill="none" stroke="#FFFFFF" d="M491.974,317.983c58.217,0.154,117.699,0.834,175.426,8.561
		c40.209,5.381,78.834,16.115,118.561,22.939"/>
</g>
<g id="Layer_3">
</g>
</svg>
