<?xml version="1.0" encoding="utf-8"?>
<!-- Svg Vector Icons : http://www.onlinewebfonts.com/icon -->
<!DOCTYPE svg PUBLIC "-//W3C//DTD SVG 1.1//EN" "http://www.w3.org/Graphics/SVG/1.1/DTD/svg11.dtd">
<svg xmlns="http://www.w3.org/2000/svg" xmlns:xlink="http://www.w3.org/1999/xlink" version="1.1" x="0px" y="0px" viewBox="0 0 1000 1000" enable-background="new 0 0 1000 1000" xml:space="preserve">
<metadata> Svg Vector Icons : http://www.onlinewebfonts.com/icon </metadata>
<g><path d="M154.1,845.9c44.9,44.9,97.2,80.2,155.5,104.8c60.4,25.5,124.4,38.5,190.4,38.5c66,0,130.1-12.9,190.4-38.5c58.3-24.6,110.6-59.9,155.5-104.8c44.9-44.9,80.2-97.2,104.8-155.5c25.5-60.4,38.5-124.4,38.5-190.4c0-66-12.9-130.1-38.5-190.4c-24.6-58.3-59.9-110.6-104.8-155.5C801,109.2,748.7,73.9,690.4,49.3C630.1,23.8,566,10.8,500,10.8c-66,0-130.1,12.9-190.4,38.5C251.3,73.9,199,109.2,154.1,154.1S73.9,251.3,49.3,309.6C23.8,369.9,10.8,434,10.8,500c0,66,12.9,130.1,38.5,190.4C73.9,748.7,109.2,801,154.1,845.9z M500,82.2c230.7,0,417.8,187,417.8,417.8c0,230.7-187,417.8-417.8,417.8S82.2,730.7,82.2,500C82.2,269.3,269.3,82.2,500,82.2z" fill="white"/></g><g><path d="M318.2,681.8c7,7,16.1,10.5,25.2,10.5c9.1,0,18.3-3.5,25.2-10.5L500,550.5l131.3,131.3c7,7,16.1,10.5,25.2,10.5c9.1,0,18.3-3.5,25.2-10.5c13.9-13.9,13.9-36.5,0-50.5L550.5,500l131.3-131.3c13.9-13.9,13.9-36.6,0-50.5c-13.9-13.9-36.5-13.9-50.5,0L500,449.5L368.7,318.2c-13.9-13.9-36.6-13.9-50.5,0c-13.9,13.9-13.9,36.6,0,50.5L449.5,500L318.2,631.3C304.3,645.2,304.3,667.8,318.2,681.8z" fill="white"/></g>
</svg>