<?xml version="1.0" encoding="utf-8"?>
<!-- Generator: Adobe Illustrator 14.0.0, SVG Export Plug-In . SVG Version: 6.00 Build 43363)  -->
<!DOCTYPE svg PUBLIC "-//W3C//DTD SVG 1.1//EN" "http://www.w3.org/Graphics/SVG/1.1/DTD/svg11.dtd">
<svg version="1.1" xmlns="http://www.w3.org/2000/svg" xmlns:xlink="http://www.w3.org/1999/xlink" x="0px" y="0px" width="183px"
	 height="157px" viewBox="0 0 183 157" enable-background="new 0 0 183 157" xml:space="preserve">
<g id="Layer_1" display="none">
	<path display="inline" fill="none" stroke="#000000" stroke-width="2" d="M126.596,119.539c6.34-3.455,6.092-4.494,12.037-1.349
		c4.674,2.473,8.587,6.239,14.344,5.616c0.418-0.045-7.771-14.52-7.592-15.915c0.559-4.322,8.404-9.731,10.949-13.478
		c7.694-11.33,10.505-24.825,9.242-38.375c-2.227-23.871-21.76-37.371-44.526-38.934c-29.366-2.017-65.884,2.393-88.594,22.939
		c-26.324,23.816-18.791,73.852,15.066,87.096c1.496,0.584,3.022,1.096,4.556,1.571c20.472,6.344,39.481,6.473,59.447-1.968
		C116.699,124.557,121.765,122.172,126.596,119.539z"/>
</g>
<g id="Layer_2" display="none">
	<path display="inline" fill="none" stroke="#000000" stroke-width="2" d="M101.194,131.92c-0.244-1.047,6.901-15.397,8.292-17.023
		c3.164-3.696,5.596-4.273,10.015-5.91c22.548-8.357,47.357-7.628,50.567-37.988c2.123-20.089-11.382-38.359-29.28-46.777
		C105.346,7.551,64.7,5.403,33.431,30.683C11.897,48.093,2.14,71.531,17.3,96.392C32.243,120.896,59.208,108.343,82,112
		c5.819,0.934,5.555,0.071,9.973,3.952c2.707,2.377,6.181,14.371,9.027,15.139C101.064,131.367,101.129,131.644,101.194,131.92z"/>
</g>
<g id="Layer_3">
	<path fill="none" stroke="#000000" stroke-width="2" d="M112.331,130.186c34.203,0.191,67.066-13.042,67.174-51.985
		c0.046-16.238-6.733-35.716-20.277-44.502C128.224,13.586,89.694,10.545,54.309,18.834C27.706,25.066,5.066,50.18,8.354,78.605
		c1.526,13.197,9.166,25.135,20.719,31.823c5.899,3.415,14.897,2.506,18.239,8.564c3.146,5.704-1.895,14.686-1.161,20.855
		c0.498,4.183,28.302-11.694,30.492-12.465C89.402,122.893,99.327,130.113,112.331,130.186z"/>
</g>
</svg>
