<?xml version="1.0" encoding="utf-8"?>
<!-- Generator: Adobe Illustrator 14.0.0, SVG Export Plug-In . SVG Version: 6.00 Build 43363)  -->
<!DOCTYPE svg PUBLIC "-//W3C//DTD SVG 1.1//EN" "http://www.w3.org/Graphics/SVG/1.1/DTD/svg11.dtd">
<svg version="1.1" id="Layer_1" xmlns="http://www.w3.org/2000/svg" xmlns:xlink="http://www.w3.org/1999/xlink" x="0px" y="0px"
	 width="183px" height="157px" viewBox="0 0 183 157" enable-background="new 0 0 183 157" xml:space="preserve">
<path fill="none" stroke="#000000" stroke-width="2" d="M126.596,119.539c6.34-3.455,6.092-4.494,12.037-1.349
	c4.674,2.473,8.587,6.239,14.344,5.616c0.418-0.045-7.771-14.52-7.592-15.915c0.559-4.322,8.404-9.731,10.949-13.478
	c7.694-11.33,10.505-24.825,9.242-38.375c-2.227-23.871-21.76-37.371-44.526-38.934c-29.366-2.017-65.884,2.393-88.594,22.939
	c-26.324,23.816-18.791,73.852,15.066,87.096c1.496,0.584,3.022,1.096,4.556,1.571c20.472,6.344,39.481,6.473,59.447-1.968
	C116.699,124.557,121.765,122.172,126.596,119.539z"/>
</svg>
