<?xml version="1.0" encoding="utf-8"?>
<!-- Generator: Adobe Illustrator 14.0.0, SVG Export Plug-In . SVG Version: 6.00 Build 43363)  -->
<!DOCTYPE svg PUBLIC "-//W3C//DTD SVG 1.1//EN" "http://www.w3.org/Graphics/SVG/1.1/DTD/svg11.dtd">
<svg version="1.1" xmlns="http://www.w3.org/2000/svg" xmlns:xlink="http://www.w3.org/1999/xlink" x="0px" y="0px"
	 width="380.98px" height="71.997px" viewBox="0 0 380.98 71.997" enable-background="new 0 0 380.98 71.997" xml:space="preserve">
<g id="Layer_2_1_">
	<path fill="#772841" d="M134.94,52.715c1.565-3.297-0.606-7.177,0.051-10.216c0.898-4.157,0.782-7.918-0.258-12.012
		c-0.905-3.562-4.226-5.363-6.498-7.989c-1.787-2.065-2.95-3.716-5.452-5.194c-6.339-3.746-13.287-5.999-20.587-6.986
		c-12.875-1.742-24.756-0.172-37.285,2.625c-7.427,1.658-13.266,5.461-20.065,8.483c-5.533,2.459-10.374,6.796-13.016,12.333
		c0.783-1.614,8.688,3.895,9.501,4.579c1.772,1.488,2.507,3.414,4.104,5.15c3.045,3.312,4.449,7.361,8.466,9.737
		c3.13,1.851,5.378,1.85,8.716,1.996c3.509,0.153,3.352,4.314,6.626,5.847c5.105,2.389-0.886-9.179-1.228-10.281
		c4.468-0.358,7.334,4.141,11.386,5.043c2.582,0.575,3.694-0.547,5.463,1.468c1.287,1.467,2.121,4.459,4.538,4.035
		c2.922-0.513-4.114-8.175,0.578-8.507c1.366-0.097,3.334,2.189,4.872,2.503c1.178,0.24,2.646-0.341,3.755,0.215
		c1.442,0.723,3.988,8.695,6.081,6.479c2.49-2.639-2.694-7.538-0.155-9.838c2.032-1.842,4.905,1.201,6.859,1.645
		c2.096,0.477,4.539-1.2,5.897,1.174c0.809,1.413-0.415,4.715,1.947,5.451c3.434,1.072,2.624-4.063,2.299-5.882
		c-0.876-4.911-0.997-8.157,4.562-7.466c2.129,0.265,4.055,0.077,5.643,1.661C131.918,48.944,134.688,53.245,134.94,52.715z"/>
	<path fill="#772841" d="M314.953,9.973c-3.596-1.686-6.957-3.653-10.901-2.412c-4.005,1.26-7.388,1.285-11.755,1.743
		c-10.115,1.061-22.198,11.35-26.256,20.443c-1.284,2.88-1.236,5.803-1.107,8.881c0.131,3.126-0.644,5.995-0.443,9.109
		c0.264,4.106,3.994,4.787,6.979,6.376c2.649,1.41,4.213,6.871,7.265,6.833c2.508-0.032,1.312-2.698,0.71-4.025
		c-1.638-3.61-0.656-2.299,2.114-4.46c3.032-2.366,3.171-4.82,6.753-1.815c2.471,2.073,2.258,3.064,2.63,6.011
		c0.23,1.825,0.855,5.454,3.25,5.571c-0.151-0.008,1.95-8.216,2.266-9.041c0.362-0.948-0.107-1.156,0.584-1.832
		c0.942-0.915,2.537-0.828,3.632-1.513c1.739-1.098,3.696-4.2,5.273-0.716c1.197,2.646-3.131,6.471-1.224,8.584
		c1.607,1.78,3.195-0.126,4.333-1.346c1.918-2.058,2.878-2.996,5.761-3.756c1.998-0.525,3.614-1.169,5.047-2.68
		c1.428-1.507,2.005-3.219,4.326-3.648c0.637,1.483,1.737,4.886,1.82,6.407c0.146,2.65-2.379,4.785-1.98,7.528
		c0.291,1.946,5.446-4.468,5.966-4.899c1.708-1.419,3.835-2.224,5.852-3.096c1.78-0.771,5.607-4.543,6.979-1.058
		c1.276,3.243-4.289,4.292-3.847,7.277c0.638,4.294,5.622-1.193,6.445-2.176c1.059-1.264,1.869-2.468,3.359-3.057
		c1.465-0.579,2.945-0.311,4.469-1.249c5.401-3.324,8.754-10.908,8.749-17.161c-0.002-2.896-1.585-5.225-3.199-7.556
		c-4.843-6.992-12.299-9.397-20.051-11.994c-4.383-1.468-8.674-0.731-13.068-1.505c-3.254-0.573-5.186-3.675-8.039-5.35
		c-0.527-0.31-1.412-1.21-2.118-0.86C315.051,7.771,314.461,9.742,314.953,9.973z"/>
</g>
<g id="Layer_1">
	<g id="Layer_2" display="none">
		<path display="inline" fill="none" stroke="#FFFFFF" stroke-width="2" stroke-linecap="round" stroke-linejoin="round" d="
			M355.399,123.077c8.794-8.723-3.387-23.547-1.898-32.563c2.836,0.349,4.766,2.524,7.661,3.206
			c1.091-6.848-6.021-17.904-9.062-23.846c-5.657-11.057-12.824-21.383-18.854-32.297c-7.178-12.993-3.229-27.737-8.849-41.988
			c-1.675-4.248-7.645-14.12,1.976-10.581c1.111,0.409-3.331-12.138-3.981-13.229c-2.275-3.822-7.26-8.452-6.893-13.284
			c0.915,0.529,3.552,0.631,4.466,1.163c0.76-8.159-8.352-10.735-9.111-16.787c-0.459-3.654,3.68-4.392,2.37-9.326
			c-2.404-9.069-15.58-11.098-16.88-21.244c-1.824-14.229,19.753-27.714,25.301-39.668c6.158-13.275,6.977-30.129-0.999-43.274
			c-7.648-12.61-26.749-20.158-39.219-10.749c-9.267,6.993-10.73,20.987-18.956,28.878c-9.562,9.175-20.863-0.51-32.604-4.327
			c-12.159-3.954-22.587-5.713-35.469-3.774c-11.241,1.692-22.054,4.039-33,7.272c-11.214,3.313-22.958,11.427-34.086,2.68
			c-8.452-6.644-9.218-20.063-15.667-28.177c-9.852-12.386-28.43-8.034-37.021,3.493c-8.56,11.483-7.139,28.323-6.227,42.754
			c0.55,8.688,3.18,15.615,8.284,22.786c4.745,6.656,13.105,10.257,13.483,18.333c0.282,6.02-6.543,18.849-11.016,22.633
			c-5.152,4.36-22.515,15.986-2.86,13.399c-1.083,3.3-28.9,36.795-6.071,25.949c-1.888,8.653-6.402,17.515-4.487,26.472
			c1.384,0.058,2.716,0.422,3.782,1.226c-0.338,2.826,0.497,5.146,0.662,7.955c0.185,3.142,1.604,10.329,0.29,13.299
			c-8.311,18.78-27.037,28.645-35.734,47.614c-3.524,7.688-2,12,3.915,9.403c1.294,8.603-6.72,15.929-5.915,25.263"/>
		<path display="inline" fill="none" stroke="#FFFFFF" stroke-width="2" stroke-linecap="round" stroke-linejoin="round" d="
			M102.733-75.591c-5.066,3.21-7.396,7.634-10,12.667"/>
		<path display="inline" fill="none" stroke="#FFFFFF" stroke-width="2" stroke-linecap="round" stroke-linejoin="round" d="
			M94.066-25.591c-5.53,4.289-11.842,13.881-8.68,21.265c2.304-1.32,3.775-4.141,5.897-5.177c0.288,4.238-0.197,7.474,2.082,11.246
			c2.631,4.356,8.61,7.201,8.7-0.667"/>
		<path display="inline" fill="none" stroke="#FFFFFF" stroke-width="2" stroke-linecap="round" stroke-linejoin="round" d="
			M116.733-18.925c-1.811,3.697-2.415,7.928-2.667,12"/>
		<path display="inline" fill="none" stroke="#FFFFFF" stroke-width="2" stroke-linecap="round" stroke-linejoin="round" d="
			M120.066-12.925c-0.886,5.562-1.309,10.986-1.333,16.667"/>
		<path display="inline" fill="none" stroke="#FFFFFF" stroke-width="2" stroke-linecap="round" stroke-linejoin="round" d="
			M286.733-44.925c3.818,4.102,5.976,11.222,6.666,16.667"/>
		<path display="inline" fill="none" stroke="#FFFFFF" stroke-width="2" stroke-linecap="round" stroke-linejoin="round" d="
			M296.733-41.591c1.012,3.452,3.409,6.804,3.333,10.667"/>
		<path display="inline" fill="none" stroke="#FFFFFF" stroke-width="2" stroke-linecap="round" stroke-linejoin="round" d="
			M134.733-143.591c-5.334-0.155-10.317-1.52-15.898-1.232c-0.464,3.984,3.861,4.39,5.849,7.082
			c-3.33,0.481-5.621,2.383-7.064,5.385c1.107-0.173,2.739,0.741,3.115,0.765"/>
		<path display="inline" fill="none" stroke="#FFFFFF" stroke-width="2" stroke-linecap="round" stroke-linejoin="round" d="
			M259.399-140.925c0.813-0.114,5.528-0.783,7.897-0.563c-0.464,2.453-1.763,4.23-2.461,6.465c3.018-0.082,6.131,0.849,6.479,4
			c-1.398,0.234-1.654,0.924-2.515,1.286c4.598,4.812,8.324,13.912,5.932,9.479"/>
		<path display="inline" fill="none" stroke="#FFFFFF" stroke-width="2" d="M101.399-180.258c10.367,10.623,10.667,20.667,10,36
			c-0.235,5.418-2.689,13.432-4,18.667c-2.194,8.77-2.65,11.835-3.333,20.667"/>
		<path display="inline" fill="none" stroke="#FFFFFF" stroke-width="2" stroke-linecap="round" stroke-linejoin="round" d="
			M302.066-180.925c-17.122-1.747-23.945,14.688-24.667,28.667c-0.42,8.148,1.156,14.9,3.482,22.487
			c1.504,4.907,5.185,21.513,5.185,26.846"/>
		<path display="inline" fill="none" stroke="#FFFFFF" d="M232.733-130.925c3.927,2.993,8.264,6.327,11.333,10.667"/>
		<path display="inline" fill="none" stroke="#FFFFFF" stroke-width="2" stroke-linecap="round" stroke-linejoin="round" d="
			M229.399-132.925c5.123,1.742,9.627,6.779,13.334,10.667"/>
		<path display="inline" fill="none" stroke="#FFFFFF" d="M243.399-132.925c4.685,2.753,9.072,6.339,10,12"/>
		<path display="inline" fill="none" stroke="#FFFFFF" stroke-width="2" d="M243.399-131.591c4.288,1.852,7.937,6.913,9.334,11.333"
			/>
		<path display="inline" fill="none" stroke="#FFFFFF" stroke-width="2" d="M151.893,5.762c-7.046-12.259-6.267-28.596-4.125-42.076
			c2.187-13.755,8.257-26.261,17.521-36.646c6.064-6.799,16.549-12.043,25.422-13.629c10.698-1.912,19.777,7.051,25.578,15.126
			c5.21,7.253,10.782,16.256,13.788,24.687c4.883,13.703,3.594,31.619,2.005,45.849c-2.774,24.845-39.653,38.343-60.178,26.201
			c-6.757-3.998-12.568-9.511-17.336-15.55C153.572,8.461,152.684,7.137,151.893,5.762z"/>
		<path display="inline" stroke="#FFFFFF" d="M137.9-74.772c4.274,9.462,7.801-4.787,6.07-9.417
			C139.826-95.283,135.338-80.445,137.9-74.772z"/>
		<path display="inline" stroke="#FFFFFF" d="M232.567-77.057c4.273,8.322,7.801-4.211,6.07-8.284
			C234.492-95.098,230.005-82.046,232.567-77.057z"/>
		<path display="inline" stroke="#FFFFFF" d="M194.859-34.144c1.458-1.791,2.744-4.439,4.41-6.26
			c2.114-2.311,1.949-2.472,5.464-3.889c3.618-1.458,11.447-1.26,7.833-7.798c-2.099-3.795-8.875-3.625-12.502-4.168
			c-4.228-0.632-41.04-5.696-29.678,8.393c2.542,3.152,6.656,1.395,9.676,3.108c3.62,2.053,3.732,5.34,6.161,8.484
			C190.445-30.809,192.82-31.637,194.859-34.144z"/>
		<path display="inline" fill="none" stroke="#FFFFFF" stroke-width="2" stroke-linecap="round" stroke-linejoin="round" d="
			M190.066-28.925c0,8.889,0,17.778,0,26.667"/>
		<path display="inline" fill="none" stroke="#FFFFFF" stroke-width="2" stroke-linecap="round" stroke-linejoin="round" d="
			M174.733,8.409c13.333-13.333,18.786-12.546,32,0.667"/>
		<path display="inline" fill="none" stroke="#FFFFFF" stroke-width="2" stroke-linecap="round" stroke-linejoin="round" d="
			M276.066-24.925c4.667,6,6.667,15.333,4.566,17.897c-2.681,0.68-1.785-2.48-3.233-4.563c-2,12.667,0.667,7.333-4.666,16"/>
	</g>
	<g id="Layer_3">
		<path fill="none" stroke="#FFFFFF" stroke-width="2" stroke-linecap="round" stroke-linejoin="round" d="M115.413,53.779
			c-3.768,1.354-7.651-0.224-10.681-2.702"/>
		<path fill="none" stroke="#FFFFFF" stroke-width="2" stroke-linecap="round" stroke-linejoin="round" d="M115.399,29.743
			c7.292,6.416,8.468,14.435,5.291,19.626"/>
		<path fill="none" stroke="#FFFFFF" stroke-width="2" stroke-linecap="round" stroke-linejoin="round" d="M98.409,55.474
			c-2.823,0.452-5.972-0.503-9.011-3.731"/>
		<path fill="none" stroke="#FFFFFF" stroke-width="2" stroke-linecap="round" stroke-linejoin="round" d="M96.066,30.743
			c8.214,2.497,13.143,16.524,8,21.666"/>
		<path fill="none" stroke="#FFFFFF" stroke-width="2" stroke-linecap="round" stroke-linejoin="round" d="M82.431,55.461
			c-4.157,0.719-7.782-0.053-12.032-5.053"/>
		<path fill="none" stroke="#FFFFFF" stroke-width="2" stroke-linecap="round" stroke-linejoin="round" d="M82.066,32.076
			c7.334,3.973,12.397,15.131,6.282,20.646"/>
		<path fill="none" stroke="#FFFFFF" stroke-width="2" stroke-linecap="round" stroke-linejoin="round" d="M129.733,47.077
			c-1.333,0.666-4.58,1.752-7.667-1.334"/>
		<path fill="none" stroke="#FFFFFF" stroke-width="2" stroke-linecap="round" stroke-linejoin="round" d="M63.733,55.077
			c-3.667,1.332-6.833,0.75-12.333-5c-5.486-5.736-9-13.667-20.5-16.167c9-14,21.31-16.916,31.167-20.315
			c11.54-3.979,21.804-5.206,34-3.852c11.032,1.226,21.507,3.69,30.517,10.853c6.502,5.168,12.995,17.132,8.195,22.951"/>
		<path fill="none" stroke="#FFFFFF" stroke-width="2" stroke-linecap="round" stroke-linejoin="round" d="M67.399,34.076
			c3.937,3.784,6.667,12.667,1.667,17"/>
		<path fill="none" stroke="#FFFFFF" stroke-width="2" stroke-linecap="round" stroke-linejoin="round" d="M128.808,44.092
			c0.154,0.863,3.93,8.181,4.591,8.982c3.758,4.561,1.672-8.496-1-11"/>
		<path fill="none" stroke="#FFFFFF" stroke-width="2" stroke-linecap="round" stroke-linejoin="round" d="M306.171,50.979
			c-0.404-0.422-0.761-0.844-1.072-1.268c-5.285-7.164,2.36-14.333,6.301-17.303"/>
		<path fill="none" stroke="#FFFFFF" stroke-width="2" stroke-linecap="round" stroke-linejoin="round" d="M324.905,51.979
			c-1.452-2.516-0.436-6.711-0.506-8.57c-1.333,5-4.667,10-12.333,9.668"/>
		<path fill="none" stroke="#FFFFFF" stroke-width="2" stroke-linecap="round" stroke-linejoin="round" d="M342.399,52.077
			c-0.667-1-1.323-2.781,0-6.668c-2.214,5.987-8,8-12,8.5"/>
		<path fill="none" stroke="#FFFFFF" stroke-width="2" stroke-linecap="round" stroke-linejoin="round" d="M325.399,13.076
			c10.992,0,33.842,7.586,36,19.833c1.331,7.55,0.192,10.851-5.333,17.167c-1.167,1.334-6.781,3.383-8.334,3.666"/>
		<path fill="none" stroke="#FFFFFF" stroke-width="2" stroke-linecap="round" stroke-linejoin="round" d="M296.099,52.349
			c3.735-0.483,5.911-2.718,7.301-4.94"/>
		<path fill="none" stroke="#FFFFFF" stroke-width="2" stroke-linecap="round" stroke-linejoin="round" d="M297.733,18.743
			c-8.771,6.152-16.277,16.969-11.918,28c1.32,3.34,2.917,4.666,3.917,5"/>
		<path fill="none" stroke="#FFFFFF" stroke-width="2" stroke-linecap="round" stroke-linejoin="round" d="M278.732,54.409
			c3.098-0.646,5.173-2.4,6.334-6.666"/>
		<path fill="none" stroke="#FFFFFF" stroke-width="2" stroke-linecap="round" stroke-linejoin="round" d="M324.733,13.076
			c-2.178-2.871-6.446-5.347-9.948-5.957c0.075,1.098,0.411,2.253,0.904,3.173c-0.749-1.398-5.878-3.25-7.423-3.681
			c-1.87-0.521-7.837,0.248-3.483,1.798c-1.79,1.259-4.808,0.544-7.05,0.667c-2.954,0.162-5.622,0.664-8.483,1.407
			c-8.258,2.145-17.698,7.414-21.108,15.667c-2.773,6.713-10.408,24.593,4.926,28.927"/>
		<path fill="none" stroke="#FFFFFF" stroke-width="2" stroke-linecap="round" stroke-linejoin="round" d="M273.732,47.077
			c-3,1,0.113,13.407,5.58,14.768c2.087,0.232-0.295-7.512-1.413-10.436"/>
		<path fill="none" stroke="#FFFFFF" stroke-width="2" stroke-linecap="round" stroke-linejoin="round" d="M295.399,48.409
			c-0.232-6.875-4.396-1.473-4.667,2.334c-0.333,4.666-0.666,10.666,2.152,11.775c2.515-0.441,1.927-9.604,2.515-13.609"/>
		<path fill="none" stroke="#FFFFFF" stroke-width="2" stroke-linecap="round" stroke-linejoin="round" d="M309.899,44.909
			c-3.131,3.323-6.5,13.834-3.425,13.926c2.592,0.908,5.649-7.433,7.425-10.426"/>
		<path fill="none" stroke="#FFFFFF" stroke-width="2" stroke-linecap="round" stroke-linejoin="round" d="M327.732,48.743
			c-0.786,1.449-5.666,10-4,11.666c2.351,2.35,10-11,7.167-12"/>
		<path fill="none" stroke="#FFFFFF" stroke-width="2" stroke-linecap="round" stroke-linejoin="round" d="M345.399,48.909
			c-1.546,3.346-8,8.168-6.435,9.924c1.102,3.576,9.555-5.345,10.435-9.09"/>
		<path fill="none" stroke="#FFFFFF" stroke-width="2" stroke-linecap="round" stroke-linejoin="round" d="M115.066,50.409
			c3.333,5.334,2,9.002,5.667,10.334c1.667-1.332,1.667-11.666-4-14.334"/>
		<path fill="none" stroke="#FFFFFF" stroke-width="2" stroke-linecap="round" stroke-linejoin="round" d="M97.399,50.909
			c3,5.168,3,11.834,6,12.168c3-1.334,1.064-11.15-2-14.168"/>
		<path fill="none" stroke="#FFFFFF" stroke-width="2" stroke-linecap="round" stroke-linejoin="round" d="M82.066,48.743
			c-1.333,4,5.576,15.397,6.667,12.666c1.909-0.602-1.333-9.666-4.333-13.5"/>
		<path fill="none" stroke="#FFFFFF" stroke-width="2" stroke-linecap="round" stroke-linejoin="round" d="M60.733,50.409
			c4.333,4.668,8.667,13.668,11,11.668c2.667-2.334-3.635-12.414-7.667-14.668"/>
		<path fill="none" stroke="#FFFFFF" stroke-width="2" stroke-linecap="round" stroke-linejoin="round" d="M333.899,24.909
			c-3.76-1.999-11.647-3.762-14.96-0.625c0.916,0.219,1.945,1.053,2.812,1.264c-2.388,1.047-4.958,0.768-6.852,2.861"/>
		<path fill="none" stroke="#FFFFFF" stroke-width="2" stroke-linecap="round" stroke-linejoin="round" d="M332.899,31.909
			c-3.687,2.126-6.149,5.11-8,9"/>
		<path fill="none" stroke="#FFFFFF" stroke-width="2" stroke-linecap="round" stroke-linejoin="round" d="M346.899,34.409
			c-1.658,1.736-2.834,4.11-3.5,6.5"/>
		<path fill="none" stroke="#FFFFFF" stroke-width="2" stroke-linecap="round" stroke-linejoin="round" d="M89.399,16.409
			c4.659-0.42,9.247-0.844,13.944-0.551c-1.28,1.401-3.323,3.184-5.091,4.45c3.881-0.203,12.546-0.218,13.146,4.101"/>
	</g>
</g>
</svg>
