<?xml version="1.0" encoding="utf-8"?>
<!-- Generator: Adobe Illustrator 14.0.0, SVG Export Plug-In . SVG Version: 6.00 Build 43363)  -->
<!DOCTYPE svg PUBLIC "-//W3C//DTD SVG 1.1//EN" "http://www.w3.org/Graphics/SVG/1.1/DTD/svg11.dtd">
<svg version="1.1" id="Layer_1" xmlns="http://www.w3.org/2000/svg" xmlns:xlink="http://www.w3.org/1999/xlink" x="0px" y="0px"
	 width="380.98px" height="331.484px" viewBox="0 0 380.98 331.484" enable-background="new 0 0 380.98 331.484"
	 xml:space="preserve">
<g id="Layer_2">
	<path fill="none" stroke="#FFFFFF" stroke-width="2" stroke-linecap="round" stroke-linejoin="round" d="M355.399,325.566
		c8.794-8.723-3.387-23.546-1.898-32.562c2.836,0.349,4.766,2.524,7.661,3.205c1.091-6.848-6.021-17.903-9.062-23.846
		c-5.657-11.056-12.824-21.382-18.854-32.296c-7.178-12.993-3.229-27.737-8.849-41.987c-1.675-4.248-7.645-14.121,1.976-10.582
		c1.111,0.41-3.331-12.138-3.981-13.229c-2.275-3.822-7.26-8.452-6.893-13.284c0.915,0.529,3.552,0.631,4.466,1.163
		c0.76-8.159-8.352-10.735-9.111-16.787c-0.459-3.654,3.68-4.392,2.37-9.326c-2.404-9.069-15.58-11.098-16.88-21.244
		c-1.824-14.229,19.753-27.714,25.301-39.668c6.158-13.275,6.977-30.129-0.999-43.274c-7.648-12.61-26.749-20.158-39.219-10.749
		c-9.267,6.993-10.73,20.987-18.956,28.878c-9.562,9.175-20.863-0.51-32.604-4.327c-12.159-3.954-22.587-5.713-35.469-3.774
		c-11.241,1.692-22.054,4.039-33,7.272c-11.214,3.313-22.958,11.427-34.086,2.68c-8.452-6.644-9.218-20.063-15.667-28.177
		c-9.852-12.386-28.43-8.034-37.021,3.493c-8.56,11.483-7.139,28.323-6.227,42.754c0.55,8.688,3.18,15.615,8.284,22.786
		c4.745,6.656,13.105,10.257,13.483,18.333c0.282,6.02-6.543,18.849-11.016,22.633c-5.152,4.36-22.515,15.986-2.86,13.399
		c-1.083,3.3-28.9,36.795-6.071,25.95c-1.888,8.652-6.402,17.515-4.487,26.472c1.384,0.058,2.716,0.422,3.782,1.226
		c-0.338,2.826,0.497,5.146,0.662,7.955c0.185,3.143,1.604,10.329,0.29,13.299c-8.311,18.78-27.037,28.646-35.734,47.614
		c-3.524,7.688-2,12,3.915,9.403c1.294,8.603-6.72,15.929-5.915,25.263"/>
	<path fill="none" stroke="#FFFFFF" stroke-width="2" stroke-linecap="round" stroke-linejoin="round" d="M102.733,126.899
		c-5.066,3.21-7.396,7.634-10,12.667"/>
	<path fill="none" stroke="#FFFFFF" stroke-width="2" stroke-linecap="round" stroke-linejoin="round" d="M94.066,176.899
		c-5.53,4.289-11.842,13.881-8.68,21.265c2.304-1.32,3.775-4.141,5.897-5.177c0.288,4.238-0.197,7.474,2.082,11.246
		c2.631,4.356,8.61,7.201,8.7-0.667"/>
	<path fill="none" stroke="#FFFFFF" stroke-width="2" stroke-linecap="round" stroke-linejoin="round" d="M116.733,183.565
		c-1.811,3.697-2.415,7.929-2.667,12"/>
	<path fill="none" stroke="#FFFFFF" stroke-width="2" stroke-linecap="round" stroke-linejoin="round" d="M120.066,189.565
		c-0.886,5.562-1.309,10.985-1.333,16.667"/>
	<path fill="none" stroke="#FFFFFF" stroke-width="2" stroke-linecap="round" stroke-linejoin="round" d="M286.733,157.565
		c3.818,4.102,5.976,11.222,6.666,16.667"/>
	<path fill="none" stroke="#FFFFFF" stroke-width="2" stroke-linecap="round" stroke-linejoin="round" d="M296.733,160.899
		c1.012,3.452,3.409,6.804,3.333,10.667"/>
	<path fill="none" stroke="#FFFFFF" stroke-width="2" stroke-linecap="round" stroke-linejoin="round" d="M134.733,58.899
		c-5.334-0.155-10.317-1.52-15.898-1.232c-0.464,3.984,3.861,4.39,5.849,7.082c-3.33,0.481-5.621,2.383-7.064,5.385
		c1.107-0.173,2.739,0.741,3.115,0.765"/>
	<path fill="none" stroke="#FFFFFF" stroke-width="2" stroke-linecap="round" stroke-linejoin="round" d="M259.399,61.565
		c0.813-0.114,5.528-0.783,7.897-0.563c-0.464,2.453-1.763,4.23-2.461,6.465c3.018-0.082,6.131,0.849,6.479,4
		c-1.398,0.234-1.654,0.924-2.515,1.286c4.598,4.812,8.324,13.912,5.932,9.479"/>
	<path fill="none" stroke="#FFFFFF" stroke-width="2" d="M101.399,22.232c10.367,10.623,10.667,20.667,10,36
		c-0.235,5.418-2.689,13.432-4,18.667c-2.194,8.77-2.65,11.835-3.333,20.667"/>
	<path fill="none" stroke="#FFFFFF" stroke-width="2" stroke-linecap="round" stroke-linejoin="round" d="M302.066,21.565
		c-17.122-1.747-23.945,14.688-24.667,28.667c-0.42,8.148,1.156,14.9,3.482,22.487c1.504,4.907,5.185,21.513,5.185,26.846"/>
	<path fill="none" d="M232.733,71.565c3.927,2.993,8.264,6.327,11.333,10.667"/>
	<path fill="none" stroke="#FFFFFF" stroke-width="2" stroke-linecap="round" stroke-linejoin="round" d="M229.399,69.565
		c5.123,1.742,9.627,6.779,13.334,10.667"/>
	<path fill="none" d="M243.399,69.565c4.685,2.753,9.072,6.339,10,12"/>
	<path fill="none" stroke="#FFFFFF" stroke-width="2" d="M243.399,70.899c4.288,1.852,7.937,6.913,9.334,11.333"/>
	<path fill="none" stroke="#FFFFFF" stroke-width="2" d="M151.893,208.251c-7.046-12.258-6.267-28.596-4.125-42.076
		c2.187-13.755,8.257-26.261,17.521-36.646c6.064-6.799,16.549-12.043,25.422-13.629c10.698-1.912,19.777,7.051,25.578,15.126
		c5.21,7.253,10.782,16.256,13.788,24.687c4.883,13.704,3.594,31.62,2.005,45.849c-2.774,24.845-39.653,38.345-60.178,26.201
		c-6.757-3.998-12.568-9.511-17.336-15.55C153.572,210.953,152.684,209.626,151.893,208.251z"/>
	<path fill="#FFFFFF" d="M137.9,127.718c4.274,9.462,7.801-4.787,6.07-9.417C139.826,107.207,135.338,122.045,137.9,127.718z"/>
	<path fill="#FFFFFF" d="M232.567,125.434c4.273,8.322,7.801-4.211,6.07-8.284C234.492,107.393,230.005,120.444,232.567,125.434z"/>
	<path fill="#FFFFFF" d="M194.859,168.347c1.458-1.791,2.744-4.439,4.41-6.26c2.114-2.311,1.949-2.472,5.464-3.889
		c3.618-1.458,11.447-1.26,7.833-7.798c-2.099-3.795-8.875-3.625-12.502-4.168c-4.228-0.632-41.04-5.696-29.678,8.393
		c2.542,3.152,6.656,1.395,9.676,3.108c3.62,2.053,3.732,5.34,6.161,8.484C190.445,171.682,192.82,170.853,194.859,168.347z"/>
	<path fill="none" stroke="#FFFFFF" stroke-width="2" stroke-linecap="round" stroke-linejoin="round" d="M190.066,173.565
		c0,8.89,0,17.778,0,26.667"/>
	<path fill="none" stroke="#FFFFFF" stroke-width="2" stroke-linecap="round" stroke-linejoin="round" d="M174.733,210.899
		c13.333-13.333,18.786-12.546,32,0.667"/>
	<path fill="none" stroke="#FFFFFF" stroke-width="2" stroke-linecap="round" stroke-linejoin="round" d="M276.066,177.565
		c4.667,6,6.667,15.333,4.566,17.897c-2.681,0.68-1.785-2.48-3.233-4.563c-2,12.667,0.667,7.333-4.666,16"/>
</g>
<g id="Layer_3" display="none">
	<path display="inline" fill="none" stroke="#FFFFFF" stroke-width="2" stroke-linecap="round" stroke-linejoin="round" d="
		M115.413,256.269c-3.768,1.354-7.651-0.225-10.681-2.703"/>
	<path display="inline" fill="none" stroke="#FFFFFF" stroke-width="2" stroke-linecap="round" stroke-linejoin="round" d="
		M115.399,232.233c7.292,6.416,8.468,14.435,5.291,19.626"/>
	<path display="inline" fill="none" stroke="#FFFFFF" stroke-width="2" stroke-linecap="round" stroke-linejoin="round" d="
		M98.409,257.964c-2.823,0.453-5.972-0.504-9.011-3.731"/>
	<path display="inline" fill="none" stroke="#FFFFFF" stroke-width="2" stroke-linecap="round" stroke-linejoin="round" d="
		M96.066,233.233c8.214,2.497,13.143,16.524,8,21.666"/>
	<path display="inline" fill="none" stroke="#FFFFFF" stroke-width="2" stroke-linecap="round" stroke-linejoin="round" d="
		M82.431,257.953c-4.157,0.719-7.782-0.054-12.032-5.054"/>
	<path display="inline" fill="none" stroke="#FFFFFF" stroke-width="2" stroke-linecap="round" stroke-linejoin="round" d="
		M82.066,234.566c7.334,3.973,12.397,15.133,6.282,20.646"/>
	<path display="inline" fill="none" stroke="#FFFFFF" stroke-width="2" stroke-linecap="round" stroke-linejoin="round" d="
		M129.733,249.566c-1.333,0.667-4.58,1.753-7.667-1.333"/>
	<path display="inline" fill="none" stroke="#FFFFFF" stroke-width="2" stroke-linecap="round" stroke-linejoin="round" d="
		M63.733,257.566c-3.667,1.333-6.833,0.75-12.333-5c-5.486-5.736-9-13.667-20.5-16.167c9-14,21.31-16.916,31.167-20.315
		c11.54-3.979,21.804-5.205,34-3.852c11.032,1.227,21.507,3.689,30.517,10.854c6.502,5.168,12.995,17.131,8.195,22.951"/>
	<path display="inline" fill="none" stroke="#FFFFFF" stroke-width="2" stroke-linecap="round" stroke-linejoin="round" d="
		M67.399,236.566c3.937,3.784,6.667,12.667,1.667,17"/>
	<path display="inline" fill="none" stroke="#FFFFFF" stroke-width="2" stroke-linecap="round" stroke-linejoin="round" d="
		M128.808,246.583c0.154,0.862,3.93,8.181,4.591,8.982c3.758,4.561,1.672-8.496-1-11"/>
	<path display="inline" fill="none" stroke="#FFFFFF" stroke-width="2" stroke-linecap="round" stroke-linejoin="round" d="
		M306.171,253.468c-0.404-0.422-0.761-0.844-1.072-1.266c-5.285-7.164,2.36-14.334,6.301-17.305"/>
	<path display="inline" fill="none" stroke="#FFFFFF" stroke-width="2" stroke-linecap="round" stroke-linejoin="round" d="
		M324.905,254.468c-1.452-2.516-0.436-6.711-0.506-8.569c-1.333,5-4.667,10-12.333,9.667"/>
	<path display="inline" fill="none" stroke="#FFFFFF" stroke-width="2" stroke-linecap="round" stroke-linejoin="round" d="
		M342.399,254.566c-0.667-1-1.323-2.779,0-6.667c-2.214,5.987-8,8-12,8.5"/>
	<path display="inline" fill="none" stroke="#FFFFFF" stroke-width="2" stroke-linecap="round" stroke-linejoin="round" d="
		M325.399,215.566c10.992,0,33.842,7.586,36,19.833c1.331,7.552,0.192,10.851-5.333,17.167c-1.167,1.334-6.781,3.385-8.334,3.667"/>
	<path display="inline" fill="none" stroke="#FFFFFF" stroke-width="2" stroke-linecap="round" stroke-linejoin="round" d="
		M296.099,254.839c3.735-0.483,5.911-2.717,7.301-4.94"/>
	<path display="inline" fill="none" stroke="#FFFFFF" stroke-width="2" stroke-linecap="round" stroke-linejoin="round" d="
		M297.733,221.233c-8.771,6.151-16.277,16.97-11.918,28c1.32,3.339,2.917,4.666,3.917,5"/>
	<path display="inline" fill="none" stroke="#FFFFFF" stroke-width="2" stroke-linecap="round" stroke-linejoin="round" d="
		M278.732,256.899c3.098-0.646,5.173-2.399,6.334-6.666"/>
	<path display="inline" fill="none" stroke="#FFFFFF" stroke-width="2" stroke-linecap="round" stroke-linejoin="round" d="
		M324.733,215.566c-2.178-2.871-6.446-5.348-9.948-5.957c0.075,1.098,0.411,2.253,0.904,3.174c-0.749-1.398-5.878-3.25-7.423-3.682
		c-1.87-0.521-7.837,0.248-3.483,1.798c-1.79,1.259-4.808,0.544-7.05,0.667c-2.954,0.162-5.622,0.664-8.483,1.407
		c-8.258,2.146-17.698,7.414-21.108,15.667c-2.773,6.713-10.408,24.593,4.926,28.926"/>
	<path display="inline" fill="none" stroke="#FFFFFF" stroke-width="2" stroke-linecap="round" stroke-linejoin="round" d="
		M273.732,249.566c-3,1,0.113,13.408,5.58,14.77c2.087,0.23-0.295-7.512-1.413-10.437"/>
	<path display="inline" fill="none" stroke="#FFFFFF" stroke-width="2" stroke-linecap="round" stroke-linejoin="round" d="
		M295.399,250.899c-0.232-6.875-4.396-1.474-4.667,2.334c-0.333,4.666-0.666,10.666,2.152,11.774
		c2.515-0.441,1.927-9.603,2.515-13.608"/>
	<path display="inline" fill="none" stroke="#FFFFFF" stroke-width="2" stroke-linecap="round" stroke-linejoin="round" d="
		M309.899,247.399c-3.131,3.323-6.5,13.834-3.425,13.925c2.592,0.909,5.649-7.432,7.425-10.425"/>
	<path display="inline" fill="none" stroke="#FFFFFF" stroke-width="2" stroke-linecap="round" stroke-linejoin="round" d="
		M327.732,251.233c-0.786,1.449-5.666,10-4,11.666c2.351,2.351,10-11,7.167-12"/>
	<path display="inline" fill="none" stroke="#FFFFFF" stroke-width="2" stroke-linecap="round" stroke-linejoin="round" d="
		M345.399,251.399c-1.546,3.345-8,8.167-6.435,9.923c1.102,3.577,9.555-5.344,10.435-9.089"/>
	<path display="inline" fill="none" stroke="#FFFFFF" stroke-width="2" stroke-linecap="round" stroke-linejoin="round" d="
		M115.066,252.899c3.333,5.334,2,9.001,5.667,10.334c1.667-1.333,1.667-11.667-4-14.334"/>
	<path display="inline" fill="none" stroke="#FFFFFF" stroke-width="2" stroke-linecap="round" stroke-linejoin="round" d="
		M97.399,253.399c3,5.167,3,11.834,6,12.167c3-1.333,1.064-11.148-2-14.167"/>
	<path display="inline" fill="none" stroke="#FFFFFF" stroke-width="2" stroke-linecap="round" stroke-linejoin="round" d="
		M82.066,251.233c-1.333,4,5.576,15.397,6.667,12.666c1.909-0.603-1.333-9.666-4.333-13.5"/>
	<path display="inline" fill="none" stroke="#FFFFFF" stroke-width="2" stroke-linecap="round" stroke-linejoin="round" d="
		M60.733,252.899c4.333,4.667,8.667,13.667,11,11.667c2.667-2.334-3.635-12.414-7.667-14.667"/>
	<path display="inline" fill="none" stroke="#FFFFFF" stroke-width="2" stroke-linecap="round" stroke-linejoin="round" d="
		M333.899,227.399c-3.76-1.999-11.647-3.762-14.96-0.625c0.916,0.22,1.945,1.054,2.812,1.265c-2.388,1.047-4.958,0.768-6.852,2.86"
		/>
	<path display="inline" fill="none" stroke="#FFFFFF" stroke-width="2" stroke-linecap="round" stroke-linejoin="round" d="
		M332.899,234.399c-3.687,2.126-6.149,5.11-8,9"/>
	<path display="inline" fill="none" stroke="#FFFFFF" stroke-width="2" stroke-linecap="round" stroke-linejoin="round" d="
		M346.899,236.899c-1.658,1.735-2.834,4.11-3.5,6.5"/>
	<path display="inline" fill="none" stroke="#FFFFFF" stroke-width="2" stroke-linecap="round" stroke-linejoin="round" d="
		M89.399,218.899c4.659-0.42,9.247-0.844,13.944-0.551c-1.28,1.401-3.323,3.185-5.091,4.45c3.881-0.203,12.546-0.219,13.146,4.101"
		/>
</g>
</svg>
