<?xml version="1.0" encoding="utf-8"?>
<!-- Generator: Adobe Illustrator 14.0.0, SVG Export Plug-In . SVG Version: 6.00 Build 43363)  -->
<!DOCTYPE svg PUBLIC "-//W3C//DTD SVG 1.1//EN" "http://www.w3.org/Graphics/SVG/1.1/DTD/svg11.dtd">
<svg version="1.1" id="Layer_3" xmlns="http://www.w3.org/2000/svg" xmlns:xlink="http://www.w3.org/1999/xlink" x="0px" y="0px"
	 width="161.834px" height="51.166px" viewBox="12.833 60.167 161.834 51.166"
	 enable-background="new 12.833 60.167 161.834 51.166" xml:space="preserve">
<path fill="none" stroke="#FFFFFF" stroke-linecap="round" stroke-linejoin="round" d="M18.333,120.667
	c-0.291-12.448,5.635-25.099,12-35.534c3.086-5.059,6.935-12.667,13.116-14.457c7.616-2.204,17.337,7.158,21.634,12.741
	c3.887,5.051,5.329,10.209,9.25,12c6.067,2.771,13.876-5.779,20.421-6.171c0.039,2.762-2.096,4.593-4.24,5.968
	c3.298-1.392,9.637-3.354,10.231-2.973c1.838,1.176-2.336,3.824-0.412,4.426c2.25,0.703,7.5-0.5,12,0.75
	c3.548,0.985,4.791-6.076,7.5-12.5c2.749-6.519,5.531-14.349,12.722-16.726c10.355-3.422,23.06,15.657,26.401,23.438
	c4.442,10.35,10.727,21.465,10.377,33.037"/>
<path fill="none" stroke="#FFFFFF" stroke-linecap="round" stroke-linejoin="round" d="M148.333,94.667
	c1.163,1.261,2.035,2.835,2.5,4.5"/>
<path fill="none" stroke="#FFFFFF" stroke-linecap="round" stroke-linejoin="round" d="M152.333,94.667
	c1.5,1.909,2.975,4.183,3.5,6.5"/>
<path fill="none" stroke="#FFFFFF" stroke-linecap="round" stroke-linejoin="round" d="M46.333,97.667
	c-0.915,1.534-1.455,3.917-1.5,6"/>
<path fill="none" stroke="#FFFFFF" stroke-linecap="round" stroke-linejoin="round" d="M48.333,99.667
	c0.158,1.541-0.007,3.051-0.5,4.5"/>
</svg>
