<?xml version="1.0" encoding="utf-8"?>
<!-- Generator: Adobe Illustrator 14.0.0, SVG Export Plug-In . SVG Version: 6.00 Build 43363)  -->
<!DOCTYPE svg PUBLIC "-//W3C//DTD SVG 1.1//EN" "http://www.w3.org/Graphics/SVG/1.1/DTD/svg11.dtd">
<svg version="1.1" id="Layer_2_2_" xmlns="http://www.w3.org/2000/svg" xmlns:xlink="http://www.w3.org/1999/xlink" x="0px" y="0px"
	 width="174.667px" height="111.333px" viewBox="60.083 25.917 174.667 111.333"
	 enable-background="new 60.083 25.917 174.667 111.333" xml:space="preserve">
<path d="M170.389,51.123c-1.358,1.134-2.734,2.165-4.147,3.027c-6.243,3.812-15.157,4.224-22.271,4.187
	c-6.955-0.036-14.353,1.194-21.256-0.087c-3.996-0.742-2.957-0.62-5.341-3.625c-4.449-5.608-14.456-17.942-22.79-16.745
	c-7.666,1.102-11.42,13.299-12.958,19.457c-1.967,7.873-4.011,17.686-1.742,25.726c0.876,3.084,3.551,5.158,3.106,8.458
	c-0.26,1.926-3.805,3.996-3.52,5.772c0.305,1.902,2.717,1.068,3.137,2.211c1.528,4.178-10.773,24.309,2.946,16.485
	c-0.585,3.264-5.506,6.909-4.089,10.448c1.405,3.507,6.946,2.07,8.895,6.277c1.666,3.596-0.053,7.534,5.361,8.542
	c3.11,0.579,7.864,1.543,11.03,1.996c14,2,23.033,3.444,35.333,4c13.677,0.618,23.333-2,40.667-2.667
	c5.067-0.195,5.991,0.667,14.667-1.333c3.652-0.842,8.677-0.382,9.88-3.979c0.93-2.777-1.882-4.24-0.408-6.983
	c1.003,1.502,2.556,3.243,4.274,3.898c0.27-5.641-1.116-8.964-4.863-13.222c2.701,0.845,7.036,4.783,7.221-1.238
	c0.024-0.801-5.49-8.681-4.303-8.423c1.898,0.412,3.925,1.06,5.957,0.871c0.159-3.119-3.473-20.53-7.846-20.847
	c2.729,0.198,5.45,1.255,8.344,0.847c-0.094-6.802-7.44-11.136-9.19-17.478c-1.585-5.741-0.708-12.75-1.181-18.678
	c-0.574-7.208-1.758-26.555-13.514-23.211C183.599,37.137,177.219,45.423,170.389,51.123z"/>
</svg>
