<?xml version="1.0" encoding="utf-8"?>
<!-- Generator: Adobe Illustrator 14.0.0, SVG Export Plug-In . SVG Version: 6.00 Build 43363)  -->
<!DOCTYPE svg PUBLIC "-//W3C//DTD SVG 1.1//EN" "http://www.w3.org/Graphics/SVG/1.1/DTD/svg11.dtd">
<svg version="1.1" xmlns="http://www.w3.org/2000/svg" xmlns:xlink="http://www.w3.org/1999/xlink" x="0px" y="0px" width="316.5px"
	 height="361.5px" viewBox="0 0 316.5 361.5" enable-background="new 0 0 316.5 361.5" xml:space="preserve">
<g id="Layer_1">
	<g id="Layer_2">
		<path fill="none" stroke="#231F20" stroke-width="2" stroke-linejoin="bevel" d="M90.5,40.5c7.5-2.5,16.616,18.643,14.924,28.825
			c-2.618-1.308-5.821-2.532-8.762-2.225c1.671,1.259,3.417,2.198,4.662,3.813c-3.705,0.074-8.451-1.257-11.033,2.067
			C88,76.5,101,72.5,89.5,83c-2.611,2.384-4.5,6.5-4.599,9.177"/>
		<path fill="none" stroke="#231F20" stroke-width="2" stroke-linecap="round" stroke-linejoin="round" d="M205.5,63.5
			c-0.604-5.285-2.865-27.719-11-25.5c-7.891,2.153-11.25,23.011-10.925,29.424C187.5,70.5,190,66.25,195.5,67
			c4.5,0.5-0.559,3.941-1.448,4.4c2.38,0.186,4.948-1.4,6.871-0.325c2.327,1.924-1.405,3.13-2.885,3.827
			c2.844,0.511,4.462,3.348,6.462,4.848"/>
		<path fill="none" stroke="#231F20" stroke-width="2" d="M104.5,326.334c1.385,1.623,2.539,1.577,4.5,0.666"/>
		<path fill="none" stroke="#231F20" stroke-width="2" stroke-linecap="round" stroke-linejoin="bevel" d="M89.5,199.5
			c0,10.45-0.364,21.111,0.587,31.5c1.134,12.386,3.112,28.189,9.497,39.1c2.341,4,5.399,6.797,6.736,11.449
			c1.08,3.76-0.369,9.908,2.167,12.986c0.233,0.283,2.32-0.842,2.524-0.987c1.109,2.188,0.924,7.763,3.883,7.003
			c0.938,1.949,2.161,8.534,1.376,9.694c-1.481,2.188-5.67,1.124-7.958,1.659c-5.85,1.367-7.478,6.957-6.647,10.763"/>
		<path fill="none" stroke="#231F20" stroke-width="2" d="M114.5,330.834c1.667,0.833,5.5,0.333,7-0.834"/>
		<path fill="none" stroke="#231F20" stroke-width="2" d="M119,315c-6.399-0.653-11.892,4.01-9.998,10.998
			c0.208,0.766,0.662,1.527,1.283,2.235"/>
		<path fill="none" stroke="#231F20" stroke-width="2" stroke-linecap="round" stroke-linejoin="bevel" d="M104.167,321.834
			c-2.499,0.276-6.827,3.522-3.833,6.167c1.833,0.119,2-2,5.167-3.5"/>
		<path fill="none" stroke="#231F20" stroke-width="2" stroke-linecap="round" stroke-linejoin="bevel" d="M112.5,326.667
			c-1.823,0.422-4.695,5.548-2,7.667c1.929,1.517,3.834-5.124,5.333-5.833"/>
		<path fill="none" stroke="#231F20" stroke-width="2" stroke-linecap="round" stroke-linejoin="round" d="M145.047,299.436
			c-5.564-3.182-9.352-13.748-10.156-19.896c-0.182,0.562-1.1,1.419-1.391,2.021c-3.236-3.832-4.562-8.209-6.55-12.629
			c-2.102-4.677-5.404-7.438-9.062-11.047c-4.915-4.85-8.19-10.688-11.772-16.546c-4.054-6.629-6.451-13.8-8.435-21.216
			c-1.034-3.863-1.916-7.458-2.371-11.455c-0.318-2.798-2.301-8.572-1.8-11.087c-1.971,9.913-6.893-3.308-7.012-6.856
			c-0.206-6.16,0.279-12.102,1.024-18.049c-10.58,10.618-5.496-4.81-3.398-10.801c1.602-4.575,3.256-8.753,6.863-11.982
			c9.275-8.302-1.995-5.859-4.635-13.866c-0.932-2.833,0.427-5.841,0.171-8.849c-0.5,1.3-1.951,2.024-2.551,2.771
			c-5.367-3.912,0.105-12.398,0.938-16.908c-1.764,1.728-2.965,4.22-5.834,3.884c-0.728-8.667,2.965-15.311,9.736-20.46
			c-2.197,1.069-4.747,1.915-7.248,1.949c0.746-2.466,3.198-3.823,3.337-6.236c0.121-2.085-1.996-5.396-2.646-7.418
			C80.695,79.91,79.68,75.131,80,70c0.497-7.967,3.284-16.753,6.5-24c5.717-12.877,17.237-8.714,23.713,0.168
			c3.413,4.682,6.645,11.699,12.603,13.6C130.061,62.079,139.515,58,146.99,58c7.092,0,16.23,1.442,21.807-3.312
			c5.212-4.442,10.745-9.86,15.564-14.8c4.613-4.73,10.306-7.571,15.188-0.879c5.817,7.975,6.626,18.621,6.905,28.155
			c0.12,4.107-0.753,9.081,0.683,13.007c1.34,3.667,5.045,5.785,6.875,9.829c2.488,5.5-2.762,4.25-7.349,2.6
			c4.103,3.226,7.487,8.462,8.96,13.389c1.714,5.735-1.213,11.405-6.424,5.463c3.15,3.676,5.801,14.048,2.699,11.997
			c-1.043-0.943-2.418-1.527-3.299-2.786C213,129,213.5,142.5,207.5,133l-3,12.5c0.009,4.091,2.045,6.74,3.889,10.111
			c3.523,6.444,7.361,13.476,10.5,20.5c4.045,9.05,4.368,17.934,6.584,27.278c2.143,9.033,6.5,15.663,9.914,23.987
			c4.973,12.118,4.164,28.511,1.613,41.136c-1.412,6.988-4.77,12.344-7.484,18.502C227.95,290.562,227,292.5,225,295l-2,2
			c0.023,4.857-4.172,11.174-6.4,4.04c0.094,3.354,0.4,4.96-3.1,7.46c-1.75,1.25-1.758-2.704-1.363-3.936
			c0.195-0.174,0.203-0.166,0.024,0.024c-3.743,3.728-4.328,8.91-9.994,10.243"/>
		<path fill="none" stroke="#231F20" stroke-width="2" stroke-linecap="round" stroke-linejoin="bevel" d="M125.667,328.167
			c-0.913,1.521-3.167,6.334-1.167,8c2.449,2.04,3.833-5.5,4.667-6.666"/>
		<path fill="none" stroke="#231F20" stroke-width="2" d="M128.655,332.344c2.752,0.137,5.684-0.509,7.871-1.344
			c12.56-4.794,7.775-22.062,7.475-32"/>
		<path fill="none" stroke="#231F20" stroke-width="2" d="M129.5,317c-5-1-10.825,1.989-8.526,10.025
			c0.55,1.922,1.645,3.225,3.043,4.062"/>
		<path fill="none" stroke="#231F20" stroke-width="2" d="M212.5,98.5c8.583-16.251,33.408-17.144,48-12.514
			C270,89,276.256,94.054,281.5,101c3.841,5.087,3.611,16.485-4,17.5c-7.5,1-9.188-3.614-17-7c-15-6.5-27.928-2.327-37.998,11.877
			c-8.998,12.692-10.207,28.938-8.002,43.623"/>
		<path fill="none" stroke="#231F20" stroke-width="2" d="M89,206c-12.687,11.889-17.558,31.493-14.953,48.328
			c1.179,7.622,3.086,15.156,4.38,22.73c1.459,8.547,8.854,16.385,14.549,22.588c5.652,6.155,11.965,10.938,20.524,11.354"/>
		<path fill="none" stroke="#231F20" stroke-width="2" stroke-linecap="round" stroke-linejoin="bevel" d="M230.023,311.048
			c-1.158,0.791-3.857,1.119-5.19,0.619"/>
		<path fill="none" stroke="#231F20" stroke-width="2" stroke-linecap="round" stroke-linejoin="bevel" d="M226,294.5
			c3.082,2.08,6.434,5.613,7.035,9.475c0.287,1.844-0.035,2.858-0.368,3.692"/>
		<path fill="none" stroke="#231F20" stroke-width="2" stroke-linecap="round" stroke-linejoin="bevel" d="M221.043,314.184
			c-1.675,0.694-3.775,0.82-6.043,0.316"/>
		<path fill="none" stroke="#231F20" stroke-width="2" stroke-linecap="round" stroke-linejoin="bevel" d="M221.5,303.75
			c1.859,1.659,3.982,3.884,3.01,6.787"/>
		<path fill="none" stroke="#231F20" stroke-width="2" stroke-linecap="round" stroke-linejoin="bevel" d="M211.244,315.487
			c-2.049,0.522-4.479,0.383-6.077-0.32"/>
		<path fill="none" stroke="#231F20" stroke-width="2" stroke-linecap="round" stroke-linejoin="bevel" d="M214.25,308
			c0.5,1.5,1.25,2.5,0.76,4.015c-0.225,0.695-0.355,1.344-0.81,1.854"/>
		<path fill="none" stroke="#231F20" stroke-width="2" stroke-linecap="round" stroke-linejoin="bevel" d="M239,242
			c3.743,6.338,12.167,31.833,5.833,37.833c-1,0.667-2.666-6.333-4.358-5.656c2.025,6.99,2.971,14.991-1.975,18.323
			c-2.333,1-1-4.333-2.333-4.333c-2.89,5.86-1.591,7.543-6,9"/>
		<path fill="none" stroke="#231F20" stroke-width="2" stroke-linecap="round" stroke-linejoin="bevel" d="M170.5,332.833
			c2.473,1.156,4.667,0.667,6.667-1.333"/>
		<path fill="none" stroke="#231F20" stroke-width="2" stroke-linecap="round" stroke-linejoin="bevel" d="M198.5,203.5
			c0,11.749-1.131,21.643-4.902,32.766c-3.824,11.278-9.453,21.983-13.135,33.244c-3.801,11.627-4.525,23.772-7.039,35.652
			c-0.927,4.378-0.253,12.271-3.674,11.279c-3.25-0.941-6.917,3.059-6.583,8.059c0.078,1.165,2.782,5.044,3,5.667"/>
		<path fill="none" stroke="#231F20" stroke-width="2" stroke-linecap="round" stroke-linejoin="bevel" d="M183.5,333.833
			c3,0,4.037-0.583,6.5-3.833"/>
		<path fill="none" stroke="#231F20" stroke-width="2" stroke-linecap="round" stroke-linejoin="bevel" d="M186.833,317.167
			c-4-1.667-11.833-0.517-11.345,7.333c0.123,1.977,0.012,3.667,1.012,5.667"/>
		<path fill="none" stroke="#231F20" stroke-width="2" stroke-linecap="round" stroke-linejoin="bevel" d="M189.257,320.367
			c-1.182,2.181-1.373,5.209,0.245,9.158c0.588,1.436,1.917,2.355,3.811,2.752"/>
		<path fill="none" stroke="#231F20" stroke-width="2" stroke-linecap="round" stroke-linejoin="bevel" d="M200.51,331.871
			c2.99-0.704,5.657-4.037,5.657-7.704s-3-6.334-3-6.334c-2.202-2.045-6.558-2.456-9.981-0.952"/>
		<path fill="none" stroke="#231F20" stroke-width="2" stroke-linecap="round" stroke-linejoin="bevel" d="M145,310
			c1.392,3.818,3.974,10.439,8.436,10.935c-0.098-1.749,0.613-3.382,1.94-4.356c1.525,2.5,5.834,6.09,7.624,2.423"/>
		<path fill="none" stroke="#231F20" stroke-width="2" stroke-linecap="round" stroke-linejoin="bevel" d="M215,214
			c0,20.086,2.197,39.236-2.539,58.986c-0.898,3.75-1.518,5.877-0.947,9.514c0.535,3.426,1.984,6.27,1.411,9.923
			c-2.44,0.298-4.006-1.614-4.946-3.772c0.556,2.238,1.252,13.591-3.004,7.802c0.018-0.37,0.034-0.369,0.053,0.002
			c-1.568,5.546-2.193,15.38-3.859,19.047"/>
		<path fill="none" stroke="#231F20" stroke-width="2" stroke-linecap="round" stroke-linejoin="bevel" d="M124.5,178.5
			c0.036,5.71,0.582,23.915,7.413,25.434c1.096-3.17,1.179-6.531,1.561-9.781c0.805,3.41,1.04,8.009,4.012,10.408
			c0.95-0.949,1.941-3.524,2.012-4.134c-0.528,4.792,4.644,19.819,10.002,18.073"/>
		<path fill="none" stroke="#231F20" stroke-width="2" stroke-linecap="round" stroke-linejoin="bevel" d="M178.5,197.5
			c0.262,4.684-0.869,10.35-3,14.5"/>
		<path fill="none" stroke="#231F20" stroke-width="2" stroke-linecap="round" stroke-linejoin="bevel" d="M183.5,192.5
			c-0.006,3.625,0.544,7.552-0.5,11"/>
		<path fill="none" stroke="#231F20" stroke-width="2" stroke-linecap="round" stroke-linejoin="bevel" d="M124.5,146.5
			c2.886,7.795,8.572,20.244,18.313,20.483c0.806-2.872,1.276-6.104-0.738-8.408c1.543,1.742,8.413,6.467,8.026,0.964
			c2.063,2.606,5.533,3.34,8.898,2.96"/>
		<path fill="none" stroke="#231F20" stroke-width="2" stroke-linecap="round" stroke-linejoin="bevel" d="M103,257.5
			c1.313,2.421,2.293,5.07,3.5,7.5"/>
		<path fill="none" stroke="#231F20" stroke-width="2" stroke-linecap="round" stroke-linejoin="bevel" d="M108.5,260
			c0.705,2.729,3.601,5.302,5.5,7.5"/>
		<path fill="none" stroke="#231F20" stroke-width="2" stroke-linecap="round" stroke-linejoin="bevel" d="M121.5,286.5
			c-0.247,1.871,0.264,3.557,1.5,5"/>
		<path fill="none" stroke="#231F20" stroke-width="2" stroke-linecap="round" stroke-linejoin="bevel" d="M124.5,285.5
			c0.237,2.062,1.039,3.93,1.5,6"/>
		<path fill="none" stroke="#231F20" stroke-width="2" stroke-linecap="round" stroke-linejoin="bevel" d="M196.5,258
			c-0.127,1.859-3.104,6.355-5,8.5"/>
		<path fill="none" stroke="#231F20" stroke-width="2" stroke-linecap="round" stroke-linejoin="bevel" d="M204,255.5
			c-0.594,2.326-1.41,4.961-3.5,6.5"/>
		<path fill="none" stroke="#231F20" stroke-width="2" stroke-linecap="round" stroke-linejoin="bevel" d="M195.5,299.5
			c-0.229,2.025-1.213,3.859-2.5,5.5"/>
		<path fill="none" stroke="#231F20" stroke-width="2" stroke-linecap="round" stroke-linejoin="bevel" d="M101,162.5
			c-2.287,2.267-3.236,5.275-3,8.5"/>
		<path fill="none" stroke="#231F20" stroke-width="2" stroke-linecap="round" stroke-linejoin="bevel" d="M104.5,167.5
			c-0.752,3.247-0.49,6.655-0.5,10"/>
		<path fill="none" stroke="#231F20" stroke-width="2" stroke-linecap="round" stroke-linejoin="bevel" d="M139.5,262
			c0.298,5.787,5.239,12.96,10.413,15.462c0.608-1.702,0.758-3.619,0.687-5.422c1.395,2.078,3.388,4.726,6.325,4.385
			c0.088-1.144,0.382-2.804,0.075-3.925"/>
		<path fill="none" stroke="#231F20" stroke-width="2" stroke-linecap="round" stroke-linejoin="bevel" d="M168.5,327.5
			c-1.262,0.39-4.154,4.6-2.766,6.414c2.517,3.284,4.813-3.448,6.766-4.414"/>
		<path fill="none" stroke="#231F20" stroke-width="2" stroke-linecap="round" stroke-linejoin="bevel" d="M180.833,329.833
			c-1.657,0.784-3.601,4.022-2.022,5.683c2.437,2.568,4.196-2.83,5.356-4.016"/>
		<path fill="none" stroke="#231F20" stroke-width="2" stroke-linecap="round" stroke-linejoin="bevel" d="M195.5,328.5
			c-1.666,1.333-0.641,7.004,1.333,7.333c2,0.334,2-3.333,1.667-6.333"/>
		<path fill="none" stroke="#231F20" stroke-width="2" stroke-linecap="round" stroke-linejoin="bevel" d="M210.167,314.667
			c1.339,0.83,2.528,2.827,4.166,2.5c2.5-0.5-0.49-4.986-3-4.334"/>
		<path fill="none" stroke="#231F20" stroke-width="2" stroke-linecap="round" stroke-linejoin="bevel" d="M220.667,310.167
			c1.5-1.167,4.735,2.902,3.166,4.5c-1.638,1.668-3.358-1.6-4.333-2.5"/>
		<path fill="none" stroke="#231F20" stroke-width="2" stroke-linecap="round" stroke-linejoin="bevel" d="M229.667,306.666
			c3.166-1,5.052,4.72,3.5,5.334c-1.448,1.219-2.377-1.714-4.334-3.167"/>
		<path fill="none" stroke="#231F20" stroke-width="2" stroke-linecap="round" stroke-linejoin="bevel" d="M168.833,79.5
			c5.444,0.001,9.776,3.931,11.021,9.106c1.482,6.17-5.371,8.982-10.688,9.227c-4.229,0.194-12.592-2.228-12.629-7.27
			C156.492,84.37,163.229,79.499,168.833,79.5z"/>
		<path fill="none" stroke="#231F20" stroke-width="2" stroke-linecap="round" stroke-linejoin="bevel" d="M110.759,99.25
			c10.041,3.083,21.788-7.565,12.898-16.487c-6.268-6.291-15.654-3.959-17.842,4.723C104.433,92.972,104.335,97.277,110.759,99.25z"
			/>
		<path fill="none" stroke="#231F20" stroke-width="2" stroke-linecap="round" stroke-linejoin="bevel" d="M155.167,94.833
			c0.919,1.314,2.389,2.68,4,3.333"/>
		<path fill="none" stroke="#231F20" stroke-width="2" stroke-linecap="round" stroke-linejoin="bevel" d="M127.833,94.5
			c-0.001,1.421-0.773,2.622-2,3.333"/>
		<path fill="none" stroke="#231F20" stroke-width="2" d="M137.694,102.5c2.456,2.446,3.638-1.351,6.173-2.162
			c1.077-0.345,6.846-0.072,5.138-2.593c-1.615-2.384-8.403-1.627-10.755-1.744c-3.327-0.166-9.829,2.102-4,3.999
			C136.518,100.738,136.035,100.847,137.694,102.5z"/>
		<path fill="none" stroke="#231F20" stroke-width="2" stroke-linecap="round" stroke-linejoin="round" d="M224.25,90.75
			c3.236-1.248,6.691-3.086,10.25-3"/>
		<path fill="none" stroke="#231F20" stroke-width="2" stroke-linecap="round" stroke-linejoin="round" d="M223.75,93.75
			c4.543-1.826,9.582-3.804,14.5-4.25"/>
		<path fill="none" stroke="#231F20" stroke-width="2" stroke-linecap="round" stroke-linejoin="round" d="M227,95.75
			c3.688-0.786,7.234-2.338,11-3"/>
		<path fill="none" stroke="#231F20" stroke-width="2" stroke-linecap="round" stroke-linejoin="round" d="M226.5,98.75
			c4.543-0.444,8.993-2.839,13.5-3.75"/>
		<path fill="none" stroke="#231F20" stroke-width="2" stroke-linecap="round" stroke-linejoin="round" d="M228.25,101
			c3.891-1.312,7.99-2.329,12-3.25"/>
		<path fill="none" stroke="#231F20" stroke-width="2" stroke-linecap="round" stroke-linejoin="round" d="M229.75,104
			c2.861-1.394,6.057-2.045,9-3.25"/>
		<path fill="none" stroke="#231F20" stroke-width="2" stroke-linecap="round" stroke-linejoin="round" d="M239,103.75
			c-3.557-0.077-6.631,1.022-9.75,2.75"/>
		<path fill="none" stroke="#231F20" stroke-width="2" stroke-linecap="round" stroke-linejoin="round" d="M241.25,104.75
			c-3.742-0.007-7.398,2.054-10.75,3.5"/>
		<path fill="none" stroke="#231F20" stroke-width="2" stroke-linecap="round" stroke-linejoin="round" d="M241.25,107
			c-2.951-0.26-6.277,1.272-8.75,2.75"/>
		<path fill="none" stroke="#231F20" stroke-width="2" stroke-linecap="round" stroke-linejoin="round" d="M252.5,106.25
			c2.294,0.351,6,1.54,8.75,2.5"/>
		<path fill="none" stroke="#231F20" stroke-width="2" stroke-linecap="round" stroke-linejoin="round" d="M252,103.75
			c3.764,1.691,8.363,0.643,12,3.25"/>
		<path fill="none" stroke="#231F20" stroke-width="2" stroke-linecap="round" stroke-linejoin="round" d="M254.25,102
			c2.408,0.459,5.295,0.641,7.5,1.75"/>
		<path fill="none" stroke="#231F20" stroke-width="2" stroke-linecap="round" stroke-linejoin="round" d="M253,99.25
			c4.143,0.464,7.871,1.832,11.75,3.25"/>
		<path fill="none" stroke="#231F20" stroke-width="2" stroke-linecap="round" stroke-linejoin="round" d="M255,97.25
			c3.284,0.638,6.553,0.846,9.75,2"/>
		<path fill="none" stroke="#231F20" stroke-width="2" stroke-linecap="round" stroke-linejoin="round" d="M254.5,94.25
			c3.464-0.104,7.395,0.819,10.5,2.25"/>
		<path fill="none" stroke="#231F20" stroke-width="2" stroke-linecap="round" stroke-linejoin="round" d="M256.75,91
			c2.609,1.347,6.602,0.639,9.5,2.25"/>
		<path fill="none" stroke="#231F20" stroke-width="2" stroke-linecap="round" stroke-linejoin="round" d="M257,87.75
			c3.119-0.161,8.521,1.373,10.75,3.5"/>
		<path fill="none" stroke="#231F20" stroke-width="2" stroke-linecap="round" stroke-linejoin="round" d="M271.5,110.5
			c0.999,0.648,2.656,1.105,4,1"/>
		<path fill="none" stroke="#231F20" stroke-width="2" stroke-linecap="round" stroke-linejoin="round" d="M267.25,112
			c2.768,1,4.691,2.078,7.75,2"/>
		<path fill="none" stroke="#231F20" stroke-width="2" stroke-linecap="round" stroke-linejoin="round" d="M243.25,93.5
			c2.545,0.012,4.877-0.103,7.25,1"/>
		<path fill="none" stroke="#231F20" stroke-width="2" stroke-linecap="round" stroke-linejoin="round" d="M242,90
			c1.456-0.001,4.206-0.223,6,0.25"/>
		<path fill="none" stroke="#231F20" stroke-width="2" stroke-linecap="round" stroke-linejoin="round" d="M213.5,117.25
			c0.18-0.851,0.62-1.642,1.25-2.25"/>
		<path fill="none" stroke="#231F20" stroke-width="2" stroke-linecap="round" stroke-linejoin="round" d="M217.25,115
			c-1.637,1.49-2.197,4.011-3,6"/>
		<path fill="none" stroke="#231F20" stroke-width="2" stroke-linecap="round" stroke-linejoin="round" d="M218.75,117
			c-1.557,2.232-2.062,4.684-3,7.25"/>
		<path fill="none" stroke="#231F20" stroke-width="2" stroke-linecap="round" stroke-linejoin="round" d="M221.75,118
			c-2.014,3.308-4.637,5.888-6,9.75"/>
		<path fill="none" stroke="#231F20" stroke-width="2" stroke-linecap="round" stroke-linejoin="round" d="M224.25,119.5
			c-2.193,2.898-5.334,5.172-7.25,8.5"/>
		<path fill="none" stroke="#231F20" stroke-width="2" stroke-linecap="round" stroke-linejoin="round" d="M211,141.25
			c-0.531,1.432-0.816,2.966-0.75,4.5"/>
		<path fill="#231F20" d="M168.562,85.875c0-0.795,0.73-1.478,1.789-1.822c-0.502-1.154-1.219-2.151-2.103-2.303
			c-2.474-0.426-3,4.417-3,6.75c0,3.317,0.917,8.333,3.915,7.466c1.945-0.453,1.843-3.543,1.988-8.081
			C169.673,87.68,168.562,86.86,168.562,85.875z"/>
		<path fill="#231F20" d="M116.188,86.25c0-0.724,0.602-1.358,1.508-1.727c-1.218-2.937-3.359-2.831-4.32,2.81
			c-0.404,2.371,0.082,5.707,1.335,7.684c3.779,5.961,4.024-3.865,3.805-6.809C117.17,87.947,116.188,87.174,116.188,86.25z"/>
	</g>
	<g id="Layer_3" display="none">
		<path display="inline" fill="none" stroke="#231F20" stroke-width="2" stroke-linecap="round" stroke-linejoin="bevel" d="
			M113,107c-5.327,1.042-10.65,2.786-16,4"/>
		<path display="inline" fill="none" stroke="#231F20" stroke-width="2" stroke-linecap="round" stroke-linejoin="bevel" d="
			M116.5,112.5c-5.409,2.757-10.162,7.018-15.5,10"/>
		<path display="inline" fill="none" stroke="#231F20" stroke-width="2" stroke-linecap="round" stroke-linejoin="bevel" d="
			M165,103c6.961,2.166,16.139,3.538,23.5,4.5"/>
		<path display="inline" fill="none" stroke="#231F20" stroke-width="2" stroke-linecap="round" stroke-linejoin="bevel" d="
			M164,108c5.404,3.908,13.395,6.951,19.5,10"/>
		<path display="inline" fill="#231F20" d="M149.744,118.733c0.101-3.154-3.807-8.988-6.993-10.006
			c-3.247-1.038-6.337,3.409-7.275,6.256c-0.379,1.148-1.8,5.268-1.976,6.517c-0.494,3.517,2.75-1.25,7.244-1.773
			c2.297-0.267,3.917-0.081,5.999,0.694c0.557,0.207,1.904,1.173,2.507,0.829c1.009-0.577,0.562-2.234-0.256-2.767"/>
		<path display="inline" fill="none" stroke="#231F20" stroke-width="2" stroke-linecap="round" stroke-linejoin="bevel" d="
			M135.475,125c2.857,2.374,10.787,3.249,13.173-0.185c2.192-3.154-0.029-8.072-1.458-11.078c-2.826-5.95-7.45-6.579-11.066-0.751
			C133.822,116.696,131.914,122.041,135.475,125z"/>
	</g>
	<g id="Layer_4" display="none" opacity="0.38">
		<path display="inline" fill="none" stroke="#231F20" stroke-width="2" stroke-linecap="round" stroke-linejoin="bevel" d="
			M162.833,108.167c5.765,2.586,12.228,5.515,18.333,7"/>
		<path display="inline" fill="none" stroke="#231F20" stroke-width="2" stroke-linecap="round" stroke-linejoin="bevel" d="
			M164.167,102.833c8.948,1.049,19.343,2.508,28.742,4.082c0.409,0.52-0.257,0.029-0.409,0.251"/>
		<path display="inline" fill="none" stroke="#231F20" stroke-width="2" stroke-linecap="round" stroke-linejoin="bevel" d="
			M115.833,105.833c-7.043,1.51-15.656,3.828-22,4.667"/>
		<path display="inline" fill="none" stroke="#231F20" stroke-width="2" stroke-linecap="round" stroke-linejoin="bevel" d="
			M118.167,110.833c-6.205,1.652-11.953,5.553-18.232,6.681c0.448,0.062,0.538-0.184,0.899-0.348"/>
		<path display="inline" fill="#231F20" d="M143.5,113.167c-6.413-1.727-11.408,3.627-11,8.667c0.29,3.58,7.538,2.755,11,2.667
			C156.5,124.167,152.167,115.5,143.5,113.167z M146.833,121.833c-1.913,0.675-13,1.833-12.333-0.667
			c0.565-2.119,6.637-3.511,8.441-3.403C146.795,117.996,151.284,120.263,146.833,121.833z"/>
	</g>
	<g id="Layer_5" display="none" opacity="0.36">
		<path display="inline" fill="none" stroke="#231F20" stroke-width="2" d="M163.5,103.167c10.111,0,22.177,0,33,0"/>
		<path display="inline" fill="none" stroke="#231F20" stroke-width="2" d="M162.833,107.833c7.254,1.178,14.56,2.964,21.667,5"/>
		<path display="inline" fill="none" stroke="#231F20" stroke-width="2" d="M117.833,104.833
			c-8.826,0.016-17.023,2.142-25.667,3.333"/>
		<path display="inline" fill="none" stroke="#231F20" stroke-width="2" d="M119.833,109.167c-7.088,1.596-14.4,3.058-21.333,5.333"
			/>
		<path display="inline" fill="none" stroke="#231F20" stroke-width="2" stroke-linecap="round" stroke-linejoin="round" d="
			M141.667,116.5c1.8-0.004,4.715,2.647,6.399,3.25c-3.303,1.244-9.667,1.072-13.139,0.691c1.805-1.135,3.59-4.059,5.823-3.942
			L141.667,116.5L141.667,116.5z"/>
		<path display="inline" fill="none" stroke="#231F20" stroke-width="2" stroke-linecap="round" stroke-linejoin="round" d="
			M140.333,111c0.004,1.649,0.118,3.216,0.333,4.833"/>
	</g>
</g>
<g id="Layer_2_1_">
	<path fill="none" stroke="#231F20" stroke-width="2" stroke-linecap="round" stroke-linejoin="round" d="M163.888,103.312
		c12.167-2.099,20.998-2.386,33.362-2.062"/>
	<path fill="none" stroke="#231F20" stroke-width="2" stroke-linecap="round" stroke-linejoin="round" d="M163.25,106.75
		c8.677,0.475,18.625,1.077,26.5,4.5"/>
	<path fill="none" stroke="#231F20" stroke-width="2" stroke-linecap="round" stroke-linejoin="round" d="M119.75,103.25
		c-9.667,0.021-19.066,0.685-28.5,3"/>
	<path fill="none" stroke="#231F20" stroke-width="2" stroke-linecap="round" stroke-linejoin="round" d="M121.25,107.75
		c-7.399,0.84-14.649,4.182-21.5,7"/>
	<path fill="none" stroke="#231F20" stroke-width="2" stroke-linecap="round" stroke-linejoin="round" d="M140.5,112
		c0.283,2.083,0.25,4.75,0.75,6"/>
	<path fill="none" stroke="#231F20" stroke-width="2" stroke-linecap="round" stroke-linejoin="round" d="M135,121.5
		c3.755-4.084,9.516-3.903,14.5-1"/>
</g>
</svg>
