<?xml version="1.0" encoding="utf-8"?>
<!-- Generator: Adobe Illustrator 14.0.0, SVG Export Plug-In . SVG Version: 6.00 Build 43363)  -->
<!DOCTYPE svg PUBLIC "-//W3C//DTD SVG 1.1//EN" "http://www.w3.org/Graphics/SVG/1.1/DTD/svg11.dtd">
<svg version="1.1" id="Layer_1" xmlns="http://www.w3.org/2000/svg" xmlns:xlink="http://www.w3.org/1999/xlink" x="0px" y="0px"
	 width="162px" height="133px" viewBox="10 6 162 133" enable-background="new 10 6 162 133" xml:space="preserve">
<path fill="none" stroke="#231F20" stroke-width="3" d="M126.596,119.539c6.34-3.455,6.092-4.494,12.037-1.35
	c4.674,2.474,8.588,6.24,14.344,5.617c0.418-0.046-7.771-14.521-7.592-15.916c0.559-4.322,8.404-9.73,10.949-13.478
	c7.693-11.33,10.505-24.825,9.242-38.375c-2.227-23.871-21.76-37.371-44.526-38.934c-29.366-2.017-65.884,2.393-88.594,22.939
	c-26.324,23.816-18.791,73.852,15.066,87.096c1.496,0.584,3.022,1.096,4.556,1.571c20.472,6.345,39.481,6.474,59.447-1.968
	C116.699,124.557,121.766,122.172,126.596,119.539z"/>
</svg>
