<?xml version="1.0" encoding="utf-8"?>
<!-- Generator: Adobe Illustrator 14.0.0, SVG Export Plug-In . SVG Version: 6.00 Build 43363)  -->
<!DOCTYPE svg PUBLIC "-//W3C//DTD SVG 1.1//EN" "http://www.w3.org/Graphics/SVG/1.1/DTD/svg11.dtd">
<svg version="1.1" id="Layer_1" xmlns="http://www.w3.org/2000/svg" xmlns:xlink="http://www.w3.org/1999/xlink" x="0px" y="0px"
	 width="176px" height="139px" viewBox="0 0 176 139" enable-background="new 0 0 176 139" xml:space="preserve">
<g id="Layer_1_1_" display="none">
	<path display="inline" fill="none" stroke="#231F20" stroke-width="3" d="M126.596,119.539c6.34-3.455,6.092-4.494,12.037-1.35
		c4.674,2.474,8.588,6.24,14.344,5.617c0.418-0.046-7.771-14.521-7.592-15.916c0.559-4.322,8.404-9.73,10.949-13.478
		c7.693-11.33,10.505-24.825,9.242-38.375c-2.227-23.871-21.76-37.371-44.526-38.934c-29.366-2.017-65.884,2.393-88.594,22.939
		c-26.324,23.816-18.791,73.852,15.066,87.096c1.496,0.584,3.022,1.096,4.556,1.571c20.472,6.345,39.481,6.474,59.447-1.968
		C116.699,124.557,121.766,122.172,126.596,119.539z"/>
</g>
<g id="Layer_2">
	<path fill="none" stroke="#231F20" stroke-width="3" d="M101.193,131.92c-0.243-1.047,6.902-15.396,8.293-17.023
		c3.164-3.695,5.596-4.272,10.015-5.91c22.548-8.356,47.356-7.627,50.567-37.987c2.123-20.089-11.383-38.359-29.28-46.777
		C105.346,7.551,64.7,5.403,33.431,30.683C11.897,48.093,2.14,71.531,17.3,96.393C32.243,120.896,59.208,108.343,82,112
		c5.819,0.934,5.555,0.07,9.973,3.952c2.707,2.377,6.181,14.371,9.027,15.139C101.064,131.367,101.129,131.645,101.193,131.92z"/>
</g>
</svg>
